<?xml version="1.0" standalone="no"?>
<!DOCTYPE svg PUBLIC "-//W3C//DTD SVG 20010904//EN"
 "http://www.w3.org/TR/2001/REC-SVG-20010904/DTD/svg10.dtd">
<svg version="1.0" xmlns="http://www.w3.org/2000/svg"
 width="775.000000pt" height="550.000000pt" viewBox="0 0 775.000000 550.000000"
 preserveAspectRatio="xMidYMid meet">

<g transform="translate(0.000000,550.000000) scale(0.100000,-0.100000)"
fill="#000000" stroke="none">
<path d="M6968 4798 c-455 -203 -497 -224 -501 -247 -2 -14 -5 7 -6 47 -1 50
-5 72 -13 72 -7 0 -51 -7 -98 -16 -275 -50 -706 -121 -713 -117 -5 3 -1 13 8
23 11 13 13 20 5 25 -8 5 -7 10 3 18 23 19 28 57 8 57 -26 0 -30 8 -21 41 6
19 5 29 -2 29 -6 0 -8 3 -5 7 4 3 0 14 -9 24 -10 11 -12 19 -5 24 8 4 6 15 -4
35 -11 22 -12 30 -2 34 6 4 1 4 -12 2 -13 -3 -32 -1 -43 5 -16 9 -18 6 -15
-28 1 -23 -2 -38 -10 -38 -6 0 -15 -3 -19 -7 -12 -12 -32 -9 -31 5 2 51 -4 79
-16 74 -10 -4 -12 3 -9 24 2 16 0 29 -6 29 -15 0 -26 -21 -16 -29 14 -9 18
-131 5 -131 -6 0 -11 8 -11 19 0 14 -6 17 -26 13 -14 -2 -22 -7 -17 -11 30
-22 34 -110 5 -112 -14 0 -13 -2 3 -9 11 -5 14 -9 8 -9 -7 -1 -13 -7 -13 -15
0 -8 -7 -17 -16 -20 -8 -3 -12 -2 -9 4 3 6 1 10 -6 10 -8 0 -8 4 1 15 7 8 9
15 4 15 -5 0 -10 19 -11 42 0 22 -7 51 -13 64 -13 24 -40 22 -40 -3 0 -15 -27
-42 -42 -43 -5 0 -8 8 -8 18 -1 21 -25 54 -33 45 -4 -3 -7 -1 -7 5 0 7 7 12
15 12 19 0 19 -1 -3 49 -10 22 -22 38 -25 34 -4 -3 -2 -12 4 -19 13 -15 4 -64
-11 -64 -6 0 -10 10 -10 22 0 13 -4 18 -9 13 -12 -14 -2 -76 12 -68 6 3 7 1 3
-5 -4 -7 -9 -22 -11 -34 -3 -12 -9 -24 -14 -28 -6 -3 -6 -11 -1 -20 8 -13 11
-12 23 5 8 10 13 25 10 32 -3 7 -1 13 5 13 5 0 12 -7 16 -15 3 -8 1 -15 -4
-15 -6 0 -10 -14 -10 -31 0 -27 -2 -30 -15 -19 -8 7 -15 9 -15 4 0 -4 -6 0
-13 9 -11 16 -13 16 -29 -3 -15 -17 -15 -20 -3 -20 20 0 20 -39 0 -46 -8 -4
-15 -10 -15 -16 0 -5 4 -7 9 -4 5 4 11 2 13 -4 1 -5 19 6 39 24 l35 34 13 -29
c7 -16 10 -33 6 -39 -3 -5 -1 -10 5 -10 6 0 8 -5 5 -10 -4 -6 -11 -8 -16 -5
-5 4 -9 1 -9 -4 0 -6 -23 -22 -51 -37 -38 -19 -54 -23 -59 -14 -5 9 -9 9 -14
1 -4 -6 -4 -16 0 -23 4 -7 3 -8 -4 -4 -7 4 -12 17 -12 28 0 12 -7 29 -16 39
-14 16 -18 16 -31 4 -8 -8 -13 -23 -12 -32 4 -40 -2 -48 -16 -23 -11 19 -14
21 -15 8 0 -10 -4 -18 -10 -18 -5 0 -7 -6 -5 -12 3 -8 -4 -14 -20 -14 -14 -1
-22 2 -19 7 7 12 -3 11 -27 -1 -16 -9 -19 -7 -19 14 0 14 -5 37 -11 53 -10 27
-11 27 -25 9 -8 -11 -14 -30 -14 -43 0 -13 -5 -23 -10 -23 -6 0 -9 -3 -9 -7 3
-21 -4 -66 -8 -50 -2 9 -9 17 -14 17 -5 0 -9 8 -9 19 0 10 -6 24 -13 30 -21
16 -60 -24 -53 -54 4 -14 1 -25 -7 -27 -23 -9 -37 3 -37 32 0 24 -29 66 -31
44 0 -5 -5 2 -10 16 l-10 25 -19 -25 c-11 -14 -20 -32 -20 -41 0 -9 -7 -19
-15 -23 -8 -3 -15 -13 -15 -22 0 -11 -6 -15 -18 -12 -11 3 -30 -1 -43 -8 -19
-10 -20 -13 -6 -14 20 0 23 -18 3 -26 -21 -8 -66 25 -66 50 0 11 -8 30 -16 41
-14 19 -16 19 -28 3 -7 -10 -17 -14 -21 -10 -5 4 -6 0 -2 -10 3 -9 3 -19 -1
-23 -4 -4 -7 -28 -7 -53 l0 -47 -35 2 c-19 1 -36 6 -38 12 -2 6 -17 11 -32 11
-29 0 -48 14 -31 24 14 9 12 103 -3 109 -9 4 -13 24 -12 66 1 33 -2 62 -6 63
-5 2 -9 18 -11 36 -1 17 -5 32 -9 32 -5 0 -8 7 -8 15 0 18 -16 20 -24 3 -6
-14 4 29 12 51 3 8 0 12 -9 9 -7 -2 -16 -15 -20 -29 -4 -13 -7 -20 -8 -15 -1
6 -7 2 -14 -9 -8 -10 -19 -15 -24 -12 -8 5 -10 -14 -8 -55 4 -75 -6 -98 -43
-98 -25 -1 -25 -2 -9 -14 9 -7 17 -23 17 -35 0 -21 -10 -25 -58 -23 -29 1 -37
-19 -21 -50 12 -22 11 -22 -6 -8 -17 14 -17 14 -7 -6 6 -12 8 -24 5 -28 -3 -3
-3 -6 1 -6 5 0 17 11 28 25 18 24 46 36 33 15 -3 -5 -1 -10 6 -10 8 0 8 -4 -2
-16 -12 -14 -14 -14 -20 3 -7 16 -8 16 -8 1 -1 -9 4 -20 10 -24 8 -5 6 -10 -5
-16 -25 -14 -19 -26 12 -22 17 2 19 1 7 -3 -39 -11 -48 -48 -10 -40 34 6 27
-15 -7 -24 -20 -5 -32 -2 -48 16 -23 25 -20 45 8 45 12 0 13 3 4 12 -9 9 -15
8 -25 -7 -11 -15 -16 -15 -22 -4 -5 7 -8 26 -7 41 1 17 -6 35 -20 49 -13 12
-16 18 -8 14 13 -8 13 -7 1 8 -13 16 -14 16 -26 1 -19 -26 -29 2 -11 28 20 28
21 44 1 28 -16 -13 -18 -11 -29 41 -14 63 -79 35 -69 -29 l6 -37 -27 24 c-14
14 -26 20 -26 15 0 -5 -5 -2 -10 6 -8 12 -13 11 -33 -8 -25 -23 -37 -20 -37 9
0 9 -9 19 -20 22 -16 4 -18 11 -13 41 3 22 1 42 -7 51 -7 8 -10 21 -7 29 4 11
1 13 -10 9 -17 -7 -16 5 3 52 6 16 5 18 -7 9 -8 -7 -22 -8 -34 -3 -19 8 -19 8
3 15 15 4 21 12 18 21 -4 8 -9 26 -12 39 -3 13 -11 24 -18 24 -10 0 -36 64
-36 90 0 6 -8 22 -17 36 -16 25 -17 25 -30 8 -15 -21 -18 -98 -3 -89 13 8 13
2 -2 -31 -11 -23 -16 -26 -54 -21 l-42 4 20 -33 c11 -19 24 -34 29 -34 5 0 9
-5 9 -11 0 -7 -11 -9 -30 -6 -39 8 -49 -11 -19 -34 22 -18 23 -20 7 -30 -13
-7 -18 -23 -18 -51 0 -41 0 -41 -20 -23 -18 17 -20 17 -14 2 4 -12 1 -17 -12
-17 -18 -1 -18 -1 -1 -14 21 -16 22 -30 2 -22 -13 4 -13 2 -5 -14 15 -28 13
-32 -12 -25 -19 6 -21 5 -10 -6 17 -18 15 -37 -5 -41 -12 -2 -22 6 -30 25 -18
40 -45 32 -56 -16 -11 -46 -55 -96 -68 -76 -5 8 -2 20 6 29 13 14 12 18 -2 33
-15 14 -15 20 -3 42 16 30 7 43 -16 24 -16 -13 -17 -11 -10 14 5 20 3 27 -9
27 -9 0 -15 9 -15 21 0 19 -2 20 -16 8 -11 -9 -14 -23 -11 -46 7 -38 1 -41
-28 -13 l-21 20 2 -29 c1 -16 5 -34 9 -40 3 -6 -1 -11 -11 -11 -14 0 -14 -3
-4 -15 10 -13 11 -18 1 -28 -10 -9 -14 -8 -22 6 -6 9 -19 17 -31 17 -19 0 -20
4 -14 49 6 45 -6 79 -17 49 -2 -7 -8 -9 -13 -5 -5 5 -1 14 9 21 24 18 22 39
-3 31 -18 -6 -20 -3 -14 19 4 16 2 26 -5 26 -6 0 -11 9 -11 20 0 11 -4 20 -10
20 -15 0 -32 -40 -27 -62 6 -20 5 -20 -16 0 l-22 21 3 -41 c4 -35 2 -40 -12
-35 -20 8 -20 0 0 -20 12 -13 13 -18 3 -24 -8 -4 -19 -3 -26 3 -9 7 -13 7 -13
0 0 -6 5 -14 10 -17 18 -11 11 -34 -12 -38 l-23 -4 23 -8 c31 -10 28 -24 -5
-20 -27 4 -27 4 -5 -7 12 -6 22 -20 22 -31 0 -16 -5 -18 -29 -15 l-29 4 21
-28 c12 -15 32 -30 45 -34 12 -3 22 -14 22 -23 0 -14 2 -14 10 -1 8 13 10 12
10 -2 0 -10 -3 -18 -7 -19 -5 0 -29 -2 -54 -4 -26 -1 -52 -6 -58 -9 -15 -9 -3
-28 12 -20 7 3 3 -1 -7 -10 -10 -8 -24 -13 -30 -10 -6 3 -1 -3 12 -12 12 -9
22 -25 22 -36 0 -17 -5 -20 -30 -16 -17 3 -30 1 -30 -4 0 -4 9 -8 20 -8 12 0
17 -5 14 -14 -3 -7 2 -16 10 -19 23 -9 20 -25 -6 -33 -13 -3 -30 -12 -38 -19
-8 -6 -23 -15 -34 -19 -16 -5 -17 -3 -11 21 6 26 6 27 -13 10 -21 -19 -32 -22
-32 -6 0 5 4 8 9 5 12 -8 21 18 14 43 -6 25 -23 18 -23 -10 0 -10 -7 -19 -15
-19 -8 0 -15 -7 -15 -15 0 -8 -5 -15 -11 -15 -8 0 -9 -4 0 -13 16 -20 4 -26
-24 -14 -18 9 -21 16 -14 29 7 13 4 20 -12 28 -19 11 -20 13 -4 30 15 17 15
18 -2 16 -13 -1 -17 5 -16 21 2 20 0 21 -21 14 -13 -6 -29 -5 -37 0 -12 8 -6
13 13 10 4 0 10 9 13 20 9 29 -7 44 -33 30 -10 -6 -22 -8 -25 -5 -6 7 -2 -46
7 -74 6 -17 3 -24 -16 -31 -20 -8 -21 -10 -5 -16 17 -7 23 -30 10 -38 -5 -2
-20 -7 -35 -11 -23 -5 -27 -2 -37 25 -12 36 -31 30 -31 -11 0 -18 -8 -34 -22
-44 -25 -18 -42 -21 -33 -6 3 5 -1 10 -11 10 -13 0 -14 3 -5 14 9 11 8 15 -5
20 -10 4 -14 12 -10 22 4 12 2 15 -9 10 -12 -4 -13 -2 -6 12 6 12 4 21 -5 30
-9 8 -14 9 -14 2 0 -6 -5 -8 -11 -5 -5 4 -18 -2 -28 -14 -14 -16 -20 -18 -31
-8 -9 8 -11 9 -6 0 3 -6 8 -30 10 -53 4 -38 1 -44 -25 -58 -16 -10 -29 -24
-30 -32 0 -11 -2 -11 -6 -2 -3 7 0 19 7 27 9 11 9 18 -3 29 -19 20 -28 10 -21
-23 5 -21 4 -24 -7 -13 -22 20 -29 14 -29 -24 0 -28 -3 -35 -15 -30 -8 3 -15
1 -15 -5 0 -5 10 -14 23 -19 21 -8 20 -9 -8 -10 -26 -1 -27 -3 -10 -10 l20 -9
-20 -1 c-11 -1 -14 -4 -7 -7 6 -2 12 -14 12 -25 0 -16 -5 -19 -21 -15 -17 5
-19 3 -10 -6 7 -7 16 -13 22 -13 5 -1 12 -2 16 -3 11 -2 -30 -41 -43 -41 -8 0
-11 -6 -8 -15 4 -10 0 -15 -15 -15 -12 0 -21 -4 -21 -9 0 -5 8 -8 18 -6 9 1
11 0 4 -2 -6 -3 -12 -8 -12 -13 0 -5 -13 -4 -30 1 -34 13 -36 16 -14 47 8 12
10 22 5 22 -6 0 -11 7 -11 15 0 8 -4 15 -10 15 -5 0 -7 7 -4 15 4 8 1 15 -5
15 -6 0 -11 6 -11 14 0 26 -23 30 -42 6 -22 -27 -23 -40 -3 -40 8 0 15 -5 15
-10 0 -6 -10 -8 -24 -4 -17 4 -27 0 -34 -13 -10 -17 -12 -17 -36 6 -34 32 -33
44 3 39 41 -6 29 8 -13 16 -19 4 -39 13 -46 21 -15 18 -7 19 21 5 27 -15 45
-2 22 17 -10 8 -12 12 -5 8 26 -13 10 14 -21 34 -17 12 -25 21 -17 20 23 -3
50 12 50 27 0 8 -8 14 -19 14 -22 0 -34 33 -17 50 8 8 6 15 -8 26 -20 14 -20
14 0 29 17 13 17 14 2 15 -9 0 -22 -8 -27 -17 -8 -14 -10 -15 -11 -3 0 13 -1
13 -10 0 -9 -13 -10 -13 -10 0 0 8 -9 21 -20 28 -18 11 -20 10 -20 -14 0 -17
-4 -23 -13 -18 -6 4 -3 -2 7 -14 19 -22 19 -22 -3 -22 -18 0 -21 -4 -16 -20 5
-15 2 -20 -12 -21 -16 0 -16 -1 2 -9 l20 -9 -20 -1 c-11 -1 -14 -4 -7 -7 19
-8 14 -30 -9 -36 -26 -7 -18 -22 22 -43 24 -12 34 -13 45 -3 11 9 14 8 14 -4
0 -16 -28 -26 -75 -28 l-30 -1 33 -12 c35 -12 33 -26 -4 -26 -15 0 -21 -6 -20
-17 1 -13 -9 -19 -34 -24 -34 -6 -34 -6 17 -14 39 -6 50 -11 46 -22 -5 -12 1
-14 26 -10 23 4 34 1 40 -12 8 -15 4 -17 -29 -19 -21 -2 -65 7 -98 18 -49 17
-67 19 -103 11 -81 -19 -114 -14 -209 34 -84 42 -139 58 -125 35 3 -6 -1 -7
-9 -4 -9 3 -16 11 -16 18 0 7 -3 6 -9 -2 -6 -10 -10 -10 -21 3 -7 8 -20 15
-29 16 -11 0 -12 2 -3 6 10 4 7 9 -8 20 -14 10 -20 22 -17 34 3 12 0 19 -9 19
-8 0 -28 7 -44 15 -24 12 -30 13 -30 2 0 -7 5 -18 12 -25 12 -12 3 -16 -33
-13 -12 1 -14 -6 -11 -34 4 -31 2 -35 -19 -36 -13 -1 -30 0 -38 1 -19 2 -32
-22 -20 -37 6 -6 9 -24 7 -39 -2 -22 -13 -33 -46 -49 -53 -25 -59 -60 -11 -78
29 -11 30 -15 25 -49 -7 -43 0 -50 14 -13 12 31 26 32 33 4 3 -12 10 -18 15
-15 6 3 23 1 39 -5 l28 -11 -25 -14 c-18 -10 -43 -13 -92 -8 l-68 6 0 -1741 0
-1741 1568 0 c1498 0 1566 1 1540 18 -24 16 -25 19 -12 37 8 11 13 28 10 37
-3 15 -1 16 17 6 12 -7 25 -11 30 -10 4 1 7 -3 7 -9 0 -5 5 -7 11 -3 16 9 1
-36 -19 -58 -14 -17 82 -18 2016 -18 l2032 0 0 946 c0 627 -3 943 -10 939 -5
-3 -10 -2 -10 4 0 6 -13 9 -30 7 -16 -2 -30 -2 -30 0 0 17 34 83 41 79 4 -3 4
-17 -1 -31 -13 -33 -14 -32 15 -26 l25 4 0 1200 c0 659 -3 1197 -8 1194 -4 -2
-399 -159 -877 -349 -479 -190 -1081 -429 -1339 -531 -258 -103 -470 -185
-472 -183 -2 2 251 105 564 229 312 125 919 367 1350 538 l782 312 0 261 0
262 -53 -95 -52 -95 -3 178 c-2 147 -5 177 -17 177 -13 0 -15 -50 -18 -342
l-2 -343 -3 343 -2 342 -27 0 c-16 0 -48 -9 -72 -20 -55 -25 -67 -25 -21 0 33
18 33 19 10 19 -14 0 -249 -99 -522 -221z m432 157 c-25 -13 -49 -24 -55 -24
-5 0 10 11 35 24 25 13 50 24 55 24 6 0 -10 -11 -35 -24z m-100 -45 c-19 -11
-39 -19 -45 -19 -5 0 6 8 25 19 19 11 40 19 45 19 6 0 -6 -8 -25 -19z m-100
-45 c-14 -8 -29 -14 -35 -14 -5 0 1 6 15 14 14 8 30 14 35 14 6 0 -1 -6 -15
-14z m-90 -40 c-14 -8 -29 -14 -35 -14 -5 0 1 6 15 14 14 8 30 14 35 14 6 0
-1 -6 -15 -14z m-1523 -30 c-3 -33 -27 -75 -27 -47 0 7 5 12 10 12 7 0 7 6 0
20 -8 15 -8 20 1 20 6 0 9 7 5 15 -3 8 -1 15 4 15 5 0 8 -16 7 -35z m1423 -15
c-19 -11 -39 -19 -45 -19 -5 0 6 8 25 19 19 11 40 19 45 19 6 0 -6 -8 -25 -19z
m-1495 -40 c3 -5 -1 -10 -10 -10 -9 0 -13 5 -10 10 3 6 8 10 10 10 2 0 7 -4
10 -10z m1395 -5 c-14 -8 -29 -14 -35 -14 -5 0 1 6 15 14 14 8 30 14 35 14 6
0 -1 -6 -15 -14z m-90 -40 c-14 -8 -29 -14 -35 -14 -5 0 1 6 15 14 14 8 30 14
35 14 6 0 -1 -6 -15 -14z m-3390 -30 c0 -19 -4 -35 -9 -35 -5 0 -7 8 -4 19 3
10 0 22 -6 25 -16 10 -13 26 4 26 10 0 15 -11 15 -35z m3280 -20 c-14 -8 -29
-14 -35 -14 -5 0 1 6 15 14 14 8 30 14 35 14 6 0 -1 -6 -15 -14z m-277 -12
c-7 -2 -21 -2 -30 0 -10 3 -4 5 12 5 17 0 24 -2 18 -5z m-70 -10 c-7 -2 -19
-2 -25 0 -7 3 -2 5 12 5 14 0 19 -2 13 -5z m-50 -10 c-7 -2 -19 -2 -25 0 -7 3
-2 5 12 5 14 0 19 -2 13 -5z m317 -3 c-8 -5 -19 -10 -25 -10 -5 0 -3 5 5 10 8
5 20 10 25 10 6 0 3 -5 -5 -10z m-377 -7 c-7 -2 -19 -2 -25 0 -7 3 -2 5 12 5
14 0 19 -2 13 -5z m-60 -10 c-7 -2 -19 -2 -25 0 -7 3 -2 5 12 5 14 0 19 -2 13
-5z m-60 -10 c-7 -2 -19 -2 -25 0 -7 3 -2 5 12 5 14 0 19 -2 13 -5z m-2757
-41 c-4 -3 -11 0 -16 8 -15 24 -11 33 6 15 9 -9 13 -19 10 -23z m1994 34 c0
-2 -7 -7 -16 -10 -8 -3 -12 -2 -9 4 6 10 25 14 25 6z m703 -3 c-7 -2 -19 -2
-25 0 -7 3 -2 5 12 5 14 0 19 -2 13 -5z m467 -3 c-8 -5 -19 -10 -25 -10 -5 0
-3 5 5 10 8 5 20 10 25 10 6 0 3 -5 -5 -10z m-527 -7 c-7 -2 -19 -2 -25 0 -7
3 -2 5 12 5 14 0 19 -2 13 -5z m-60 -10 c-7 -2 -19 -2 -25 0 -7 3 -2 5 12 5
14 0 19 -2 13 -5z m-408 -22 c-7 -12 -45 -21 -45 -11 0 12 33 30 42 23 5 -2 6
-8 3 -12z m348 12 c-7 -2 -19 -2 -25 0 -7 3 -2 5 12 5 14 0 19 -2 13 -5z m-50
-10 c-7 -2 -19 -2 -25 0 -7 3 -2 5 12 5 14 0 19 -2 13 -5z m-573 -8 c0 -2 -10
-9 -22 -15 -22 -11 -22 -10 -4 4 21 17 26 19 26 11z m507 -1 c-3 -3 -12 -4
-19 -1 -8 3 -5 6 6 6 11 1 17 -2 13 -5z m-60 -10 c-3 -3 -12 -4 -19 -1 -8 3
-5 6 6 6 11 1 17 -2 13 -5z m-54 -11 c-7 -2 -19 -2 -25 0 -7 3 -2 5 12 5 14 0
19 -2 13 -5z m-168 -13 c3 -5 1 -10 -4 -10 -6 0 -11 5 -11 10 0 6 2 10 4 10 3
0 8 -4 11 -10z m108 3 c-7 -2 -19 -2 -25 0 -7 3 -2 5 12 5 14 0 19 -2 13 -5z
m1675 -149 l4 -134 -34 -14 c-18 -7 -47 -16 -65 -19 -31 -6 -31 -5 -56 61 -13
37 -28 82 -32 100 -9 41 -11 39 -29 -29 l-15 -54 0 68 c-1 40 3 66 8 62 5 -3
12 -1 16 5 4 6 11 7 17 4 6 -4 17 1 25 11 12 18 13 18 13 1 0 -13 5 -16 23
-11 12 4 26 8 32 9 5 0 23 23 38 50 42 71 51 52 55 -110z m-4448 127 c0 -6 -4
-13 -10 -16 -5 -3 -10 1 -10 9 0 9 5 16 10 16 6 0 10 -4 10 -9z m223 -31 c3
-11 1 -18 -4 -14 -5 3 -9 12 -9 20 0 20 7 17 13 -6z m-241 -32 c-7 -7 -12 -8
-12 -2 0 6 3 14 7 17 3 4 9 5 12 2 2 -3 -1 -11 -7 -17z m509 -1 c-10 -9 -11
-8 -5 6 3 10 9 15 12 12 3 -3 0 -11 -7 -18z m2189 -36 c0 -11 -4 -22 -9 -25
-11 -7 -35 50 -26 63 9 16 35 -12 35 -38z m1518 22 c15 -33 16 -159 1 -202
-12 -35 -35 -51 -73 -51 -25 0 -26 2 -27 63 -1 73 -17 51 -18 -24 -1 -46 -2
-47 -37 -54 -26 -4 -39 -2 -45 7 -15 23 -11 234 4 247 8 6 17 8 21 4 4 -4 11
-1 16 7 8 13 10 13 10 1 0 -11 4 -10 13 4 10 12 16 14 21 7 4 -7 5 -16 2 -21
-4 -5 -2 -20 3 -33 8 -20 10 -17 10 20 1 24 5 41 9 38 5 -3 22 -1 38 4 16 4
31 9 34 9 3 0 11 -11 18 -26z m-4001 -5 c-3 -8 -6 -5 -6 6 -1 11 2 17 5 13 3
-3 4 -12 1 -19z m228 2 c3 -5 1 -10 -4 -10 -6 0 -11 5 -11 10 0 6 2 10 4 10 3
0 8 -4 11 -10z m3555 -122 l-1 -83 -19 40 c-22 46 -25 90 -7 110 23 26 27 15
27 -67z m-3860 62 c0 -5 -7 -10 -15 -10 -21 0 -19 -18 3 -23 13 -4 13 -5 -4
-6 -16 -1 -23 6 -26 24 -4 21 -1 25 18 25 13 0 24 -4 24 -10z m-70 -4 c0 -3
-4 -8 -10 -11 -5 -3 -10 -1 -10 4 0 6 5 11 10 11 6 0 10 -2 10 -4z m3864 -48
c-4 -18 -8 -40 -9 -50 -1 -9 -6 -22 -12 -30 -29 -38 -27 -41 14 -35 l41 7 0
-79 c1 -51 -3 -83 -11 -88 -20 -15 -101 -43 -125 -43 -20 0 -21 4 -17 51 4 58
9 65 45 72 14 3 7 4 -15 4 l-40 -2 -6 -65 c-4 -36 -5 4 -2 88 2 84 8 163 13
175 8 20 9 21 10 2 0 -17 2 -17 10 -5 8 12 10 8 11 -15 l2 -30 4 28 c2 15 9
25 14 22 5 -4 9 -2 9 4 0 5 15 12 33 14 17 2 33 5 35 5 2 1 0 -13 -4 -30z
m-3134 2 c0 -5 -5 -10 -11 -10 -5 0 -7 5 -4 10 3 6 8 10 11 10 2 0 4 -4 4 -10z
m-670 -42 c0 -4 -4 -8 -9 -8 -6 0 -12 4 -15 8 -3 5 1 9 9 9 8 0 15 -4 15 -9z
m3139 -38 l-1 -25 -8 25 c-4 14 -8 32 -9 40 -1 13 0 13 9 0 5 -8 9 -26 9 -40z
m-74 30 c15 6 27 6 30 0 8 -13 -10 -75 -40 -144 -19 -44 -30 -56 -47 -56 -19
0 -20 -2 -8 -11 12 -8 11 -10 -5 -7 -18 3 -20 12 -23 86 -2 67 0 83 13 88 8 3
15 12 15 20 0 8 7 14 15 14 8 0 15 6 16 13 0 9 2 9 5 0 4 -8 13 -9 29 -3z
m-2835 -21 c-7 -11 -14 -18 -17 -15 -3 3 0 12 7 21 18 21 23 19 10 -6z m1438
4 c-10 -2 -26 -2 -35 0 -10 3 -2 5 17 5 19 0 27 -2 18 -5z m1534 -18 c9 2 19
-3 22 -11 8 -20 26 -17 27 4 1 19 4 11 13 -30 4 -16 13 -28 22 -28 30 0 12
-44 -21 -52 -25 -6 -24 -7 8 -3 l38 4 -3 -57 -3 -57 -45 -11 c-25 -6 -62 -14
-83 -17 l-37 -6 1 85 c1 63 5 87 15 91 8 3 11 9 8 14 -10 16 -12 79 -3 73 5
-3 9 3 10 13 0 15 1 16 7 2 4 -9 15 -15 24 -14z m-1634 8 c-10 -2 -26 -2 -35
0 -10 3 -2 5 17 5 19 0 27 -2 18 -5z m-1763 -13 c3 -5 1 -10 -4 -10 -6 0 -11
5 -11 10 0 6 2 10 4 10 3 0 8 -4 11 -10z m1653 3 c-10 -2 -26 -2 -35 0 -10 3
-2 5 17 5 19 0 27 -2 18 -5z m-111 -9 c-3 -3 -12 -4 -19 -1 -8 3 -5 6 6 6 11
1 17 -2 13 -5z m-104 -11 c-7 -2 -21 -2 -30 0 -10 3 -4 5 12 5 17 0 24 -2 18
-5z m-1215 -25 c2 -13 -4 -16 -28 -16 -31 1 -45 11 -36 26 9 16 61 7 64 -10z
m1095 15 c-7 -2 -21 -2 -30 0 -10 3 -4 5 12 5 17 0 24 -2 18 -5z m1777 -36 c1
-19 3 -18 15 8 13 29 14 26 12 -45 l-2 -74 -32 -7 c-18 -3 -36 -2 -42 4 -8 8
-11 7 -12 -3 -2 -22 -2 -21 5 -76 5 -43 4 -53 -11 -58 -21 -8 -31 8 -26 42 2
15 7 70 11 122 6 72 10 88 16 68 5 -16 12 -28 17 -28 5 0 7 12 5 28 -2 15 -1
19 1 10 7 -29 23 -20 23 13 0 34 20 31 20 -4z m-2290 -2 c0 -8 -4 -16 -9 -19
-5 -3 -8 5 -8 19 0 14 3 22 8 19 5 -3 9 -11 9 -19z m2347 -77 c-2 -18 -4 -4
-4 32 0 36 2 50 4 33 2 -18 2 -48 0 -65z m1080 75 c-13 -3 -17 -11 -14 -23 3
-11 -1 -21 -10 -24 -22 -9 -23 -8 -23 24 0 27 3 30 33 29 18 -1 24 -3 14 -6z
m-1751 -12 c11 9 14 9 14 -1 0 -7 6 -10 14 -7 16 6 23 -25 25 -110 3 -93 -38
-80 -59 18 -8 37 -16 56 -20 47 -17 -31 -40 -144 -40 -198 l0 -59 -52 -10
c-77 -16 -221 -41 -236 -41 -9 0 -12 14 -10 47 3 44 5 48 33 55 l30 7 -32 -3
-32 -2 2 53 c1 29 6 53 12 53 5 0 4 5 -3 12 -18 18 -15 58 5 65 9 4 19 1 21
-5 6 -18 40 -14 52 6 8 13 9 3 4 -39 -5 -43 -2 -58 10 -68 9 -8 16 -24 16 -37
0 -18 5 -24 23 -24 12 0 17 3 11 8 -6 4 -11 14 -12 22 0 8 -3 36 -7 62 -4 25
-5 62 -1 81 5 29 14 38 44 50 l37 15 6 -32 6 -31 2 33 c1 25 5 32 21 32 18 0
20 -7 22 -92 l2 -93 3 88 c3 67 7 87 18 88 29 3 33 4 41 12 5 5 10 3 12 -3 3
-8 8 -8 18 1z m1344 -58 c0 -70 -18 -143 -36 -143 -10 0 -13 10 -10 38 3 20 7
67 11 104 5 52 10 66 21 61 10 -3 14 -22 14 -60z m350 37 c0 -16 -2 -30 -4
-30 -2 0 -11 -3 -19 -6 -11 -4 -16 4 -19 30 -4 32 -1 36 19 36 19 0 23 -5 23
-30z m-3507 -37 c-7 -2 -19 -2 -25 0 -7 3 -2 5 12 5 14 0 19 -2 13 -5z m-145
-10 c-10 -2 -26 -2 -35 0 -10 3 -2 5 17 5 19 0 27 -2 18 -5z m-165 -10 c-7 -2
-21 -2 -30 0 -10 3 -4 5 12 5 17 0 24 -2 18 -5z m-1580 -33 c-7 -28 -13 -25
-13 6 0 14 4 23 9 20 5 -3 7 -15 4 -26z m1470 23 c-7 -2 -21 -2 -30 0 -10 3
-4 5 12 5 17 0 24 -2 18 -5z m2931 -29 c15 -38 3 -94 -20 -94 -10 0 -14 15
-14 55 0 40 4 55 14 55 8 0 17 -7 20 -16z m-3396 -19 c-3 -3 -9 2 -12 12 -6
14 -5 15 5 6 7 -7 10 -15 7 -18z m3344 -26 c2 -31 -1 -50 -9 -53 -18 -7 -23 4
-23 50 0 25 -5 44 -12 47 -7 2 -1 4 14 4 24 0 26 -3 30 -48z m-3410 13 c3 -11
0 -19 -7 -19 -7 0 -10 8 -7 19 2 10 6 18 7 18 1 0 5 -8 7 -18z m1997 -30 c0
-24 -1 -25 -9 -7 -8 18 -9 18 -9 -6 -1 -26 -39 -149 -50 -160 -3 -4 -16 -10
-28 -14 -23 -6 -23 -5 -23 87 0 109 8 126 65 130 51 4 55 2 54 -30z m1218 -68
c-2 -2 -25 -7 -51 -10 -46 -7 -48 -6 -37 13 6 12 12 35 13 52 2 25 8 33 28 37
14 3 30 7 35 8 9 3 21 -92 12 -100z m-1146 56 c8 11 10 8 6 -13 -2 -15 0 -30
4 -33 5 -3 9 0 9 6 0 6 5 8 10 5 6 -4 9 -50 8 -113 -1 -60 -3 -82 -5 -51 -4
53 -5 56 -28 51 -21 -4 -28 2 -45 39 -25 56 -26 114 -2 128 13 8 19 5 25 -12
7 -18 10 -19 18 -7z m-2503 -8 c3 -9 -2 -13 -14 -10 -9 1 -19 9 -22 16 -3 9 2
13 14 10 9 -1 19 -9 22 -16z m2255 -10 c15 -14 17 -13 18 4 1 10 5 1 11 -21
11 -47 2 -136 -15 -147 -8 -5 -6 -8 6 -8 9 0 18 -8 18 -17 1 -16 2 -16 6 -2 2
10 12 19 23 22 13 3 17 1 13 -10 -3 -8 4 -27 16 -43 11 -16 17 -31 13 -33 -10
-7 -158 -21 -204 -21 -21 0 -38 -3 -38 -7 0 -4 -20 -9 -44 -10 -32 -3 -42 -1
-39 8 3 7 8 11 13 8 4 -2 18 6 31 18 13 12 27 22 31 22 5 0 7 3 6 6 -2 3 3 13
11 22 10 13 17 14 33 6 14 -8 18 -8 14 0 -4 6 3 13 16 15 13 3 32 7 43 9 12 3
7 5 -12 6 l-33 1 0 74 c0 118 14 140 63 98z m1027 -28 c0 -24 -4 -44 -10 -44
-5 0 -10 23 -10 51 0 31 4 48 10 44 6 -3 10 -26 10 -51z m1007 -26 c-2 -18 -4
-6 -4 27 0 33 2 48 4 33 2 -15 2 -42 0 -60z m-1037 62 c0 -5 -2 -10 -4 -10 -3
0 -8 5 -11 10 -3 6 -1 10 4 10 6 0 11 -4 11 -10z m-1421 -160 c0 -109 -3 -150
-12 -150 -7 0 -55 -6 -107 -14 -52 -8 -121 -17 -152 -21 l-58 -6 0 135 0 136
31 0 c17 0 38 4 48 9 16 9 18 3 20 -76 1 -61 -2 -89 -11 -95 -10 -6 -8 -8 5
-8 15 0 17 11 17 100 l0 99 30 16 c16 8 38 15 50 15 19 0 20 -6 20 -105 l0
-105 28 1 c23 2 24 2 5 6 -22 4 -23 9 -23 102 0 54 3 101 7 104 3 4 28 7 55 7
l48 0 -1 -150z m1491 105 c0 -8 -7 -15 -15 -15 -26 0 -18 20 13 29 1 1 2 -6 2
-14z m-503 -87 c-2 -13 -4 -5 -4 17 -1 22 1 32 4 23 2 -10 2 -28 0 -40z
m-1551 -44 c-4 -18 -14 -40 -22 -49 -17 -17 -49 -21 -39 -4 4 5 10 31 14 57 5
36 11 47 24 46 9 -1 18 3 18 10 1 6 3 3 6 -7 3 -11 2 -34 -1 -53z m2866 35
c-42 -18 -62 -18 -62 1 0 9 34 16 80 18 20 0 16 -4 -18 -19z m-3437 -56 c0 -1
-11 0 -23 4 -16 4 -22 13 -22 32 0 20 2 23 10 11 8 -12 10 -12 10 5 1 13 6 8
14 -15 7 -19 12 -36 11 -37z m-55 30 c0 -8 -5 -11 -11 -8 -5 4 -18 0 -27 -7
-35 -31 -42 -30 -42 1 0 25 4 30 28 33 36 5 52 -1 52 -19z m1877 -40 c-2 -16
-4 -5 -4 22 0 28 2 40 4 28 2 -13 2 -35 0 -50z m1533 59 c0 -19 -29 -40 -88
-65 -35 -15 -68 -25 -73 -21 -5 3 -9 22 -8 42 0 20 3 31 6 23 4 -9 7 -10 12
-2 12 19 151 40 151 23z m-183 -96 c-3 -7 -23 -18 -46 -26 -38 -12 -43 -12
-56 6 -14 18 -14 18 -15 -7 0 -23 -8 -30 -62 -52 -35 -14 -65 -24 -67 -22 -9
10 13 23 46 28 l38 6 -3 60 -4 59 74 12 c40 6 78 13 83 14 11 3 20 -58 12 -78z
m-617 -16 c0 -40 -4 -70 -10 -70 -5 0 -10 7 -10 15 0 8 -7 15 -15 15 -8 0 -15
-9 -15 -19 0 -11 -8 -22 -17 -25 -10 -3 10 -3 45 0 35 3 70 8 78 11 11 4 14
-6 14 -45 0 -40 -4 -52 -17 -56 -41 -12 -318 -47 -335 -43 -10 3 -21 1 -24 -4
-3 -5 -14 -9 -25 -9 -23 0 -26 35 -4 44 8 3 15 14 15 25 0 11 7 24 14 28 10 6
16 30 18 78 3 76 0 74 101 88 l37 6 0 -70 c0 -69 0 -69 28 -68 23 2 24 2 5 6
-21 4 -23 10 -23 59 0 44 3 54 18 55 35 1 54 8 65 22 7 9 21 17 32 20 11 3 21
5 23 6 1 0 2 -30 2 -69z m-1890 50 c0 -5 -2 -10 -4 -10 -3 0 -8 5 -11 10 -3 6
-1 10 4 10 6 0 11 -4 11 -10z m-2313 -6 c-3 -3 -12 -4 -19 -1 -8 3 -5 6 6 6
11 1 17 -2 13 -5z m558 -32 c0 -28 4 -34 30 -41 23 -7 26 -10 14 -15 -27 -12
-83 8 -94 32 -5 12 -15 22 -22 22 -7 0 -13 8 -13 18 0 16 8 19 43 18 41 -1 42
-2 42 -34z m42 32 c-3 -3 -12 -4 -19 -1 -8 3 -5 6 6 6 11 1 17 -2 13 -5z m33
-24 c0 -5 -5 -10 -11 -10 -5 0 -7 5 -4 10 3 6 8 10 11 10 2 0 4 -4 4 -10z
m909 -9 c11 -20 5 -31 -16 -31 -7 0 -13 11 -13 25 0 29 15 33 29 6z m633 -25
c7 -33 -7 -55 -15 -24 -9 32 -8 48 2 48 5 0 11 -11 13 -24z m138 3 c0 -18 -2
-20 -15 -9 -13 11 -13 15 -3 21 18 12 18 12 18 -12z m130 -29 c0 -34 -4 -41
-25 -46 -33 -8 -55 11 -55 46 0 29 11 36 58 39 19 1 22 -4 22 -39z m1455 -78
c-3 -4 -10 0 -14 7 -7 11 -13 11 -32 -3 -27 -18 -52 -22 -28 -3 19 14 31 77
14 77 -6 0 -16 -5 -23 -12 -9 -9 -12 -8 -12 8 0 15 8 19 36 21 20 1 42 7 48
13 8 8 12 -4 14 -46 2 -31 0 -59 -3 -62z m-2395 49 c0 -6 -4 -12 -8 -15 -5 -3
-9 1 -9 9 0 8 4 15 9 15 4 0 8 -4 8 -9z m-46 -16 c-4 -8 -7 -15 -9 -15 -2 0
-5 7 -9 15 -3 9 0 15 9 15 9 0 12 -6 9 -15z m3094 -2 c-5 -25 -28 -28 -28 -4
0 12 6 21 16 21 9 0 14 -7 12 -17z m-1028 -88 c0 -49 -4 -67 -15 -71 -8 -4
-15 -15 -15 -25 0 -29 -32 -55 -65 -53 -17 1 -30 2 -30 4 0 1 -12 4 -27 6 -19
3 -28 0 -28 -9 0 -8 -6 -15 -12 -16 -31 -5 -131 -9 -115 -5 9 3 17 10 17 15 0
6 -6 7 -12 3 -7 -4 -5 2 5 13 15 17 15 21 4 26 -8 3 -20 0 -26 -6 -9 -9 -14
-8 -21 2 -7 12 -12 12 -23 3 -12 -10 -16 -7 -21 19 -3 17 -6 51 -6 75 0 43 1
44 33 44 17 0 43 3 56 7 22 6 23 4 20 -51 -4 -54 -3 -56 21 -55 14 1 18 3 10
5 -11 3 -14 16 -12 53 4 45 6 49 34 55 59 12 88 7 88 -13 0 -47 -13 -80 -34
-84 -11 -3 18 -4 66 -3 48 0 88 5 88 9 0 5 -25 7 -56 5 l-55 -3 3 50 3 50 45
6 c86 12 80 16 80 -56z m2150 40 c0 -8 6 -15 14 -15 8 0 21 7 30 15 8 8 17 15
20 15 3 0 6 -7 6 -15 0 -8 -4 -15 -9 -15 -5 0 -13 -9 -16 -20 -4 -11 -11 -18
-16 -15 -12 8 -11 -7 1 -41 9 -22 8 -25 -2 -17 -7 6 -24 9 -38 8 -14 -1 -27 1
-30 4 -3 3 -20 11 -38 18 -28 10 -34 9 -39 -4 -4 -9 1 -19 10 -25 22 -12 22
-26 1 -24 -25 2 -28 -21 -4 -29 14 -4 28 -1 39 9 19 18 31 12 31 -15 0 -9 6
-20 13 -23 6 -3 0 -3 -15 0 -26 6 -27 5 -18 -27 7 -22 6 -37 -1 -46 -9 -10 -6
-15 12 -22 23 -10 20 -11 -26 -15 -11 0 -21 -8 -21 -16 -1 -8 -3 -18 -4 -22
-1 -5 -3 -11 -4 -15 -1 -5 -6 -19 -10 -32 l-9 -25 -14 27 c-7 15 -18 27 -24
27 -6 0 -8 58 -7 156 l3 157 75 27 c91 34 90 34 90 15z m-2890 -63 c0 -54 -2
-59 -27 -70 l-28 -12 28 5 c26 5 27 4 27 -39 0 -40 -2 -44 -29 -49 -64 -13
-293 -29 -327 -23 -32 7 -35 10 -32 39 3 30 6 32 48 38 25 3 37 7 28 7 -15 2
-18 12 -18 63 l0 61 28 -7 c15 -3 37 -7 50 -7 20 0 22 -5 22 -48 0 -47 -1 -49
-32 -53 -32 -4 -32 -4 5 -5 l37 -2 0 64 c0 69 6 76 73 76 26 0 27 -1 29 -62
l2 -63 3 57 4 56 39 7 c22 4 40 11 40 16 0 5 7 9 15 9 12 0 15 -13 15 -58z
m-1600 15 c0 -5 -4 -5 -10 -2 -5 3 -10 14 -10 23 0 15 2 15 10 2 5 -8 10 -19
10 -23z m-1657 6 c-7 -2 -19 -2 -25 0 -7 3 -2 5 12 5 14 0 19 -2 13 -5z m2787
-24 c0 -11 -4 -17 -10 -14 -5 3 -10 1 -10 -6 0 -9 -3 -10 -10 -3 -14 14 -2 44
16 44 8 0 14 -9 14 -21z m-2142 -10 c14 -15 26 -18 46 -13 14 3 26 10 26 15 0
5 7 9 15 9 12 0 15 -13 15 -61 l0 -61 -37 6 c-62 11 -73 16 -74 34 -1 15 -2
15 -6 0 -5 -21 0 -21 -62 -7 l-51 11 15 29 c15 27 57 58 82 59 7 0 21 -9 31
-21z m226 5 c3 -9 6 -43 6 -76 l0 -61 -37 7 c-21 3 -46 6 -55 6 -15 0 -18 10
-18 64 0 63 1 65 28 69 55 8 70 7 76 -9z m5086 -56 c0 -40 3 -220 7 -401 6
-315 5 -328 -13 -342 -17 -13 -8 -14 86 -14 58 0 114 4 125 9 13 6 -16 9 -82
9 l-103 1 0 219 c0 214 0 219 21 224 12 3 31 2 42 -3 l22 -9 -22 0 c-24 -1
-29 -16 -13 -41 6 -9 5 -17 -2 -21 -6 -4 -8 -14 -5 -24 4 -9 11 -13 17 -10 5
3 10 0 10 -8 0 -11 16 -15 65 -16 66 -1 75 4 53 29 -7 8 -4 7 8 -3 11 -9 26
-17 32 -17 16 0 15 -13 0 -29 -10 -11 -10 -14 0 -18 6 -3 12 -12 12 -20 0 -9
6 -13 14 -10 7 3 18 1 23 -4 7 -7 16 -5 27 6 9 9 21 13 27 10 7 -5 8 -10 0
-18 -6 -6 -8 -29 -4 -56 l6 -46 -27 24 c-25 24 -38 17 -14 -7 21 -21 2 -23
-25 -2 l-26 21 -11 -21 c-8 -15 -8 -20 1 -20 6 0 9 -7 5 -15 -7 -19 10 -20 21
-2 5 9 17 11 33 7 l25 -7 -28 -12 c-16 -6 -26 -15 -22 -20 3 -5 -1 -11 -9 -13
-12 -2 -11 -9 3 -41 14 -35 19 -38 49 -35 17 2 32 0 32 -4 0 -4 -4 -8 -9 -8
-15 0 -6 -32 12 -42 9 -5 17 -16 17 -23 0 -24 -18 -17 -32 12 -11 23 -21 28
-57 31 -41 3 -43 3 -28 -13 25 -24 21 -35 -11 -26 -32 10 -58 -9 -40 -27 8 -8
6 -13 -7 -18 -12 -5 -22 -2 -28 8 -8 12 -17 13 -49 5 -27 -7 -36 -13 -29 -21
8 -9 1 -11 -26 -8 -28 4 -34 2 -28 -9 5 -8 4 -11 -1 -6 -5 5 -10 13 -10 18 -1
5 -3 11 -4 14 -1 3 -3 8 -5 13 -7 27 -19 42 -33 42 -13 0 -13 -2 2 -19 16 -17
16 -20 1 -35 -16 -16 -40 -13 -30 4 3 5 1 11 -4 14 -15 9 -25 -14 -12 -27 17
-17 13 -29 -8 -22 -11 3 -22 1 -26 -5 -10 -16 25 -25 46 -12 27 17 29 15 29
-17 0 -36 28 -50 48 -24 13 17 14 16 8 -7 -3 -14 -6 -31 -6 -39 0 -11 -3 -11
-15 -1 -8 7 -46 12 -90 12 l-75 1 0 93 0 94 51 0 c31 0 48 4 44 10 -7 12 -97
13 -111 2 -5 -5 -46 -7 -91 -4 -62 3 -83 8 -83 18 0 11 26 14 132 14 72 0 128
3 124 7 -4 4 -63 6 -131 4 l-125 -3 0 355 0 355 43 16 c137 51 264 95 275 95
8 1 12 -20 12 -71z m-4313 10 c-2 -13 -4 -5 -4 17 -1 22 1 32 4 23 2 -10 2
-28 0 -40z m964 20 c1 -26 3 -28 6 -9 l5 23 12 -24 c29 -55 -11 -120 -63 -103
-22 7 -30 45 -8 45 6 0 1 9 -13 20 -14 11 -19 20 -12 20 7 0 10 4 7 10 -3 5
-1 18 4 27 6 10 11 12 11 6 0 -18 20 -16 20 2 0 8 7 15 15 15 10 0 15 -11 16
-32z m3684 22 c3 -5 -1 -10 -10 -10 -9 0 -13 5 -10 10 3 6 8 10 10 10 2 0 7
-4 10 -10z m-1606 -24 c-2 -2 -25 -13 -51 -24 -46 -20 -48 -20 -48 -2 0 11 9
20 23 23 29 6 81 8 76 3z m511 -292 c0 -291 0 -296 -20 -291 -11 3 -20 1 -20
-4 0 -5 9 -9 20 -9 18 0 20 -7 20 -65 0 -45 -4 -65 -12 -66 -10 0 -10 -2 0 -6
18 -7 16 -63 -3 -63 -8 0 -15 5 -15 10 0 6 -17 10 -37 10 -40 0 -36 -15 7 -23
14 -2 3 -5 -24 -6 -27 0 -46 -4 -42 -8 4 -5 34 -7 67 -5 54 3 59 1 59 -17 0
-18 -7 -21 -42 -23 l-43 -1 43 -4 c72 -7 46 -20 -35 -18 -62 2 -77 5 -79 19
-2 12 7 16 34 17 22 1 29 3 17 6 -11 3 -28 14 -38 24 -17 18 -17 19 5 20 22 1
22 1 -2 9 l-25 8 25 1 c14 1 32 6 40 12 12 8 9 9 -12 5 -15 -3 -30 -1 -33 4
-17 28 -25 -13 -25 -131 l0 -129 -80 0 c-52 0 -80 4 -80 11 0 7 9 9 21 6 11
-3 27 -3 35 0 17 6 19 63 2 63 -9 0 -8 4 2 10 11 7 5 10 -25 12 l-40 1 38 4
c29 3 37 9 37 24 0 10 -6 19 -12 19 -9 0 -8 4 2 10 11 7 5 10 -22 10 -21 0
-38 4 -38 9 0 15 18 23 25 11 3 -5 15 -10 26 -10 22 0 27 38 7 59 -10 11 -10
14 0 18 25 9 11 19 -23 15 l-35 -4 0 313 0 314 163 61 c89 34 163 62 165 63 1
0 2 -132 2 -295z m-3185 277 c3 -5 1 -12 -5 -16 -5 -3 -10 1 -10 9 0 18 6 21
15 7z m2565 -14 c0 -21 -36 -40 -167 -85 -15 -5 -18 55 -5 76 5 7 43 16 88 21
43 5 80 9 82 10 1 0 2 -9 2 -22z m-1010 -22 c0 -8 -3 -14 -7 -14 -27 4 -43 -3
-43 -21 0 -11 5 -20 10 -20 6 0 10 -7 10 -15 0 -18 -30 -20 -31 -2 -2 22 3 72
8 80 8 14 53 7 53 -8z m30 5 c0 -5 -2 -10 -4 -10 -3 0 -8 5 -11 10 -3 6 -1 10
4 10 6 0 11 -4 11 -10z m2794 -16 c5 -14 4 -15 -9 -4 -17 14 -19 20 -6 20 5 0
12 -7 15 -16z m-3704 -8 c0 -16 -18 -31 -27 -22 -8 8 5 36 17 36 5 0 10 -6 10
-14z m3770 4 c0 -5 -5 -10 -11 -10 -5 0 -7 5 -4 10 3 6 8 10 11 10 2 0 4 -4 4
-10z m-860 -360 l0 -350 -30 0 -30 0 1 283 c1 155 5 309 9 342 5 43 7 4 9
-134 0 -107 3 -192 6 -189 3 3 8 90 11 194 5 175 8 204 20 204 2 0 4 -157 4
-350z m-1210 315 c0 -9 -6 -12 -15 -9 -8 4 -15 10 -15 15 0 5 7 9 15 9 8 0 15
-7 15 -15z m1140 -330 c0 -291 -2 -335 -15 -335 -12 0 -15 18 -17 93 l-2 92
-3 -92 c-2 -51 -8 -93 -13 -93 -12 0 -12 527 0 610 5 38 8 -19 10 -180 l4
-235 6 160 c4 88 8 195 9 238 0 44 5 77 11 77 6 0 10 -118 10 -335z m647 313
c-3 -8 -6 -5 -6 6 -1 11 2 17 5 13 3 -3 4 -12 1 -19z m-1317 -308 c-1 -234 -4
-310 -13 -310 -8 0 -8 -3 -2 -8 6 -4 11 -17 13 -29 3 -18 -2 -23 -20 -24 l-23
-2 23 -4 c28 -5 29 -33 1 -33 -11 0 -17 -5 -14 -10 4 -6 11 -8 16 -5 5 4 9 1
9 -4 0 -6 -7 -11 -15 -11 -23 0 -18 -19 8 -30 22 -9 22 -9 -3 -10 l-25 -2 25
-8 25 -8 -25 -2 c-25 -1 -25 -1 -2 -10 27 -12 29 -24 2 -17 -11 3 -20 2 -20
-3 0 -4 9 -10 20 -13 11 -3 20 -12 20 -21 0 -14 -17 -16 -122 -15 -178 2 -172
-1 -178 89 -3 41 -5 212 -5 380 l0 305 145 56 c80 31 148 57 153 58 4 1 7
-138 7 -309z m-945 290 c3 -5 4 -10 1 -10 -2 0 -12 -3 -20 -6 -12 -5 -15 -2
-10 10 7 18 20 21 29 6z m1544 -315 c2 -279 0 -315 -13 -315 -13 0 -16 16 -18
93 l-2 92 -3 -92 c-2 -51 -8 -93 -13 -93 -12 0 -12 524 -1 590 6 32 9 -6 12
-135 l3 -180 6 120 c4 66 8 148 9 183 0 35 5 61 10 58 4 -3 9 -147 10 -321z
m-1721 293 c-7 -19 -35 -21 -41 -3 -5 11 0 15 19 15 16 0 24 -5 22 -12z m692
3 c-27 -16 -603 -242 -607 -238 -3 4 596 245 612 246 6 0 3 -4 -5 -8z m960
-301 l0 -310 -30 0 -30 0 1 268 c0 147 4 285 8 307 8 37 9 35 10 -27 0 -38 5
-68 11 -68 6 0 10 30 10 70 0 40 4 70 10 70 6 0 10 -110 10 -310z m-2130 165
l0 -135 -45 0 -45 0 0 129 0 130 28 4 c67 10 62 20 62 -128z m-105 -1 c-1 -69
-6 -128 -9 -131 -4 -4 -33 -9 -66 -11 l-60 -4 0 130 0 131 43 4 c23 2 54 4 69
5 l26 2 -3 -126z m798 106 c2 -9 -9 -21 -30 -31 -30 -15 -48 -10 -22 6 6 4 8
13 5 20 -6 17 -2 21 23 21 11 0 22 -7 24 -16z m-1383 -45 c-17 -21 -30 -19
-30 5 0 13 5 18 15 14 10 -4 15 0 16 12 1 18 2 18 6 1 3 -10 -1 -24 -7 -32z
m45 35 c3 -5 1 -10 -4 -10 -6 0 -11 5 -11 10 0 6 2 10 4 10 3 0 8 -4 11 -10z
m395 -115 c0 -93 -3 -125 -12 -125 -7 0 -30 -3 -50 -6 -36 -6 -38 -5 -38 20 0
16 -5 26 -15 26 -8 0 -15 7 -15 15 0 8 5 15 10 15 6 0 10 6 10 14 0 8 10 16
22 18 13 2 24 11 26 21 3 16 -1 18 -32 14 -35 -5 -49 5 -23 17 10 5 10 7 0 12
-7 3 -13 21 -13 39 0 39 7 43 78 44 l52 1 0 -125z m2607 -312 c-1 -82 -3 -15
-3 147 0 162 2 229 3 148 2 -82 2 -214 0 -295z m643 392 c10 -31 13 -33 27
-20 18 18 33 11 33 -15 0 -19 1 -19 19 -3 11 9 18 20 15 25 -3 4 2 8 10 8 9 0
16 -3 17 -7 0 -5 2 -15 4 -24 2 -12 -3 -15 -16 -12 -11 3 -26 0 -34 -7 -8 -7
-21 -10 -30 -7 -21 9 -28 -10 -8 -22 16 -9 16 -10 1 -11 -9 0 -20 5 -23 10 -4
6 -11 8 -16 5 -5 -4 -9 5 -9 19 0 14 -4 26 -10 26 -5 0 -10 7 -10 15 0 8 -9
15 -20 15 -14 0 -20 7 -20 21 0 16 4 19 20 14 12 -4 20 -2 20 5 0 21 19 0 30
-35z m-960 -250 c0 -183 -4 -285 -10 -285 -6 0 -10 96 -10 269 0 241 3 301 16
301 2 0 4 -128 4 -285z m-4235 225 c25 -9 25 -10 25 -135 0 -85 -4 -125 -11
-125 -6 0 -29 14 -50 31 l-39 31 0 110 0 110 25 -6 c13 -3 36 -11 50 -16z
m3475 -360 l0 -380 -134 0 -133 0 -7 31 c-8 40 -8 602 0 623 3 9 14 16 24 16
10 0 69 20 131 44 63 25 115 45 117 45 1 1 2 -170 2 -379z m1552 358 c-7 -7
-12 -8 -12 -2 0 14 12 26 19 19 2 -3 -1 -11 -7 -17z m-4305 6 c-3 -3 -12 -4
-19 -1 -8 3 -5 6 6 6 11 1 17 -2 13 -5z m2130 -16 c-3 -8 -6 -5 -6 6 -1 11 2
17 5 13 3 -3 4 -12 1 -19z m1400 -370 c-1 -73 -3 -14 -3 132 0 146 2 205 3
133 2 -73 2 -193 0 -265z m-1442 373 c3 -5 1 -12 -5 -16 -5 -3 -10 1 -10 9 0
18 6 21 15 7z m-2722 -17 l47 -16 0 -68 c0 -38 -4 -71 -9 -75 -6 -3 -8 -14 -6
-24 6 -31 -10 -45 -29 -26 -15 15 -16 15 -16 -4 0 -28 -17 -35 -29 -12 -10 17
-16 241 -8 241 2 0 24 -7 50 -16z m-194 -191 c-1 -128 -4 -175 -9 -147 -5 23
-7 50 -6 60 2 11 -1 22 -6 25 -8 5 -15 26 -17 54 -1 6 -10 -5 -21 -22 -11 -18
-25 -33 -31 -33 -8 0 -7 5 2 16 10 12 10 17 1 23 -7 4 -11 24 -10 44 3 31 5
35 14 22 9 -13 13 -13 17 -3 3 7 6 2 7 -12 2 -21 3 -19 10 10 4 19 11 52 14
73 4 21 11 35 17 32 5 -4 9 5 9 19 0 14 2 26 5 26 3 0 5 -84 4 -187z m18 -90
c-1 -54 -3 -12 -3 92 0 105 2 149 3 98 2 -51 2 -136 0 -190z m790 271 c-3 -3
-12 -4 -19 -1 -8 3 -5 6 6 6 11 1 17 -2 13 -5z m4318 -4 c8 -13 -5 -13 -25 0
-13 8 -13 10 2 10 9 0 20 -4 23 -10z m-4812 -21 l37 -10 0 -55 c0 -37 -4 -53
-11 -49 -14 10 -37 -24 -31 -47 2 -10 -1 -18 -7 -18 -6 0 -11 8 -11 18 0 10
-7 27 -15 38 -15 20 -22 134 -7 134 4 0 24 -5 45 -11z m5777 -3 c0 -3 -4 -8
-10 -11 -5 -3 -10 -1 -10 4 0 6 5 11 10 11 6 0 10 -2 10 -4z m-835 -16 c3 -5
1 -10 -4 -10 -6 0 -11 5 -11 10 0 6 2 10 4 10 3 0 8 -4 11 -10z m171 -6 c5 12
10 13 26 5 16 -9 18 -13 7 -19 -10 -7 -10 -11 0 -24 11 -13 10 -17 -4 -22 -9
-4 -22 -1 -28 6 -9 10 -9 11 1 6 6 -4 12 -5 12 -2 0 9 -71 36 -80 31 -5 -3
-11 -1 -15 5 -3 5 1 10 9 10 9 0 16 5 16 11 0 7 10 5 25 -5 22 -15 26 -15 31
-2z m698 -15 c-13 -15 -19 -16 -25 -7 -10 16 9 38 27 31 13 -5 12 -8 -2 -24z
m-1840 -429 c21 0 17 -197 -4 -210 -13 -8 -12 -10 3 -10 12 0 17 -8 17 -30 0
-16 -4 -30 -10 -30 -6 0 -9 3 -9 8 3 19 -2 32 -13 32 -10 0 -14 69 -16 302 -2
166 1 321 5 343 5 26 9 -37 11 -182 2 -183 5 -223 16 -223z m1280 374 c3 -8 2
-12 -4 -9 -6 3 -10 10 -10 16 0 14 7 11 14 -7z m-274 -4 c0 -5 -5 -10 -11 -10
-5 0 -7 5 -4 10 3 6 8 10 11 10 2 0 4 -4 4 -10z m853 -72 c-10 -20 -20 -5 -18
25 4 44 6 47 14 12 4 -16 6 -33 4 -37z m-773 10 c0 -4 -7 -5 -15 -2 -8 4 -15
16 -15 27 0 20 0 20 15 1 8 -10 15 -22 15 -26z m-93 6 c-3 -3 -12 -4 -19 -1
-8 3 -5 6 6 6 11 1 17 -2 13 -5z m-2980 -20 c-3 -3 -12 -4 -19 -1 -8 3 -5 6 6
6 11 1 17 -2 13 -5z m673 -16 c0 -11 -8 -22 -20 -25 -11 -3 -17 -10 -13 -17 3
-6 2 -7 -3 -3 -5 5 -9 20 -10 35 -1 22 3 27 22 28 18 2 24 -3 24 -18z m317
-355 c-1 -71 -3 -13 -3 127 0 140 2 198 3 128 2 -71 2 -185 0 -255z m2270 371
c-3 -3 -12 -4 -19 -1 -8 3 -5 6 6 6 11 1 17 -2 13 -5z m-3495 -42 c15 -14 25
-28 23 -32 -3 -5 2 -10 9 -13 10 -4 14 -20 13 -51 -2 -41 -5 -46 -26 -46 -17
0 -22 4 -17 16 4 12 2 15 -9 10 -8 -3 -23 -9 -32 -13 -12 -5 -15 -2 -11 8 4 9
-2 20 -13 27 -15 10 -19 24 -19 72 l0 60 28 -6 c15 -4 39 -18 54 -32z m168 17
c0 -14 -5 -19 -14 -16 -8 3 -33 11 -55 17 -23 6 -41 13 -41 15 0 3 25 5 55 5
49 0 55 -2 55 -21z m-260 -9 c0 -5 -4 -10 -10 -10 -5 0 -10 5 -10 10 0 6 5 10
10 10 6 0 10 -4 10 -10z m-2031 -64 c-1 -16 -2 -17 -6 -3 -2 9 -9 17 -14 17
-5 0 -9 4 -9 10 0 5 7 7 15 4 8 -4 14 -16 14 -28z m2971 30 c0 -2 -8 -10 -17
-17 -16 -13 -17 -12 -4 4 13 16 21 21 21 13z m2490 -26 c0 -5 -2 -10 -4 -10
-3 0 -8 5 -11 10 -3 6 -1 10 4 10 6 0 11 -4 11 -10z m30 0 c0 -5 -4 -10 -10
-10 -5 0 -10 5 -10 10 0 6 5 10 10 10 6 0 10 -4 10 -10z m-3280 -25 c10 -13 9
-15 -9 -15 -12 0 -21 6 -21 15 0 8 4 15 9 15 5 0 14 -7 21 -15z m747 -32 c-11
-10 -26 8 -20 23 5 15 7 14 15 -1 6 -9 7 -19 5 -22z m131 9 c9 9 12 8 12 -6 0
-9 5 -14 10 -11 6 3 10 -1 10 -9 0 -9 -7 -16 -15 -16 -8 0 -15 -5 -15 -11 0
-19 -25 -3 -26 17 -1 10 -5 28 -9 39 -6 18 -6 19 8 3 10 -13 16 -15 25 -6z
m2424 -24 c-7 -7 -12 -8 -12 -2 0 14 12 26 19 19 2 -3 -1 -11 -7 -17z m-3292
-8 c0 -5 -4 -10 -10 -10 -5 0 -10 5 -10 10 0 6 5 10 10 10 6 0 10 -4 10 -10z
m740 -4 c0 -3 -4 -8 -10 -11 -5 -3 -10 -1 -10 4 0 6 5 11 10 11 6 0 10 -2 10
-4z m40 -17 c0 -5 5 -7 10 -4 6 3 10 1 10 -4 0 -17 -27 -13 -34 4 -3 8 -1 15
4 15 6 0 10 -5 10 -11z m2395 0 c11 -17 -1 -21 -15 -4 -8 9 -8 15 -2 15 6 0
14 -5 17 -11z m65 1 c0 -5 -8 -10 -17 -10 -15 0 -16 2 -3 10 19 12 20 12 20 0z
m-2430 -71 c0 -5 -4 -9 -10 -9 -5 0 -10 7 -10 16 0 8 5 12 10 9 6 -3 10 -10
10 -16z m973 4 c-7 -2 -19 -2 -25 0 -7 3 -2 5 12 5 14 0 19 -2 13 -5z m0 -20
c-7 -2 -19 -2 -25 0 -7 3 -2 5 12 5 14 0 19 -2 13 -5z m665 -21 c2 -7 -3 -12
-12 -12 -9 0 -16 7 -16 16 0 17 22 14 28 -4z m32 3 c0 -8 -4 -15 -10 -15 -5 0
-10 7 -10 15 0 8 5 15 10 15 6 0 10 -7 10 -15z m-303 -17 c-3 -8 -6 -5 -6 6
-1 11 2 17 5 13 3 -3 4 -12 1 -19z m20 0 c-3 -8 -6 -5 -6 6 -1 11 2 17 5 13 3
-3 4 -12 1 -19z m73 11 c0 -5 -13 -9 -30 -9 -16 0 -30 4 -30 8 0 5 14 9 30 10
17 0 30 -4 30 -9z m30 1 c0 -5 -4 -10 -10 -10 -5 0 -10 5 -10 10 0 6 5 10 10
10 6 0 10 -4 10 -10z m40 0 c0 -5 -7 -10 -15 -10 -8 0 -15 5 -15 10 0 6 7 10
15 10 8 0 15 -4 15 -10z m30 0 c0 -5 -4 -10 -10 -10 -5 0 -10 5 -10 10 0 6 5
10 10 10 6 0 10 -4 10 -10z m40 0 c0 -5 -7 -10 -15 -10 -8 0 -15 5 -15 10 0 6
7 10 15 10 8 0 15 -4 15 -10z m-41 -110 c0 -49 -5 -90 -10 -90 -5 0 -9 41 -9
90 0 53 4 90 10 90 6 0 10 -36 9 -90z m41 39 c0 -36 -4 -49 -12 -47 -15 5 -19
55 -6 81 14 28 18 20 18 -34z m29 -39 c-2 -122 -19 -126 -19 -6 0 60 4 96 10
96 7 0 10 -33 9 -90z m41 -5 c0 -57 -4 -95 -10 -95 -5 0 -11 17 -11 38 -1 20
-2 57 -3 82 -2 51 2 70 15 70 5 0 9 -43 9 -95z m17 3 c-2 -18 -4 -4 -4 32 0
36 2 50 4 33 2 -18 2 -48 0 -65z m128 15 c-1 -43 -3 -85 -4 -94 -1 -13 -12
-16 -56 -16 l-55 0 0 93 0 94 59 0 59 0 -3 -77z m540 67 c3 -5 2 -10 -4 -10
-5 0 -13 5 -16 10 -3 6 -2 10 4 10 5 0 13 -4 16 -10z m-938 -133 c-2 -23 -3
-1 -3 48 0 50 1 68 3 42 2 -26 2 -67 0 -90z m42 48 c0 -47 -5 -85 -10 -85 -5
0 -9 38 -9 85 0 50 4 85 10 85 6 0 10 -35 9 -85z m67 0 c0 -54 -4 -85 -11 -85
-7 0 -11 31 -11 85 -1 60 3 85 11 85 8 0 12 -25 11 -85z m-159 -47 c-2 -24 -4
-5 -4 42 0 47 2 66 4 43 2 -24 2 -62 0 -85z m20 0 c-2 -24 -4 -5 -4 42 0 47 2
66 4 43 2 -24 2 -62 0 -85z m483 37 c0 -69 -3 -85 -15 -85 -12 0 -15 16 -15
85 0 69 3 85 15 85 12 0 15 -16 15 -85z m505 65 c3 -5 -1 -10 -10 -10 -9 0
-13 5 -10 10 3 6 8 10 10 10 2 0 7 -4 10 -10z m355 0 c0 -5 -5 -10 -11 -10 -5
0 -7 5 -4 10 3 6 8 10 11 10 2 0 4 -4 4 -10z m-320 -14 c0 -2 -7 -7 -16 -10
-8 -3 -12 -2 -9 4 6 10 25 14 25 6z m-5020 -160 l0 -153 -42 -7 c-29 -5 -44
-3 -50 6 -9 15 -11 292 -1 301 3 4 26 7 50 7 l43 0 0 -154z m3803 143 c18 0
26 -3 19 -6 -6 -2 -10 -9 -6 -14 3 -5 -7 -9 -23 -8 -25 0 -26 1 -8 9 17 7 15
9 -12 9 -18 1 -33 6 -33 12 0 6 7 8 16 5 9 -3 30 -6 47 -7z m-3913 -154 c0
-85 -4 -155 -9 -155 -13 0 -21 80 -21 201 0 90 3 109 15 109 13 0 15 -24 15
-155z m3987 149 c-3 -3 -12 -4 -19 -1 -8 3 -5 6 6 6 11 1 17 -2 13 -5z m913
-4 c12 -8 11 -10 -7 -10 -13 0 -23 5 -23 10 0 13 11 13 30 0z m139 -6 c17 -4
28 -11 25 -16 -4 -6 0 -14 7 -19 7 -4 10 -11 6 -15 -4 -4 -14 1 -22 13 -8 11
-25 21 -40 21 -28 0 -32 -10 -11 -27 12 -10 15 -41 7 -70 0 -3 -10 5 -21 16
-12 14 -27 19 -40 16 -21 -6 -28 11 -8 23 7 4 8 3 4 -4 -4 -7 -2 -12 4 -12 7
0 10 6 7 13 -2 6 -14 12 -27 12 -13 0 -25 6 -28 13 -2 7 -8 10 -12 7 -5 -3
-11 -1 -14 4 -4 5 6 8 21 6 14 -1 40 3 57 11 36 15 43 16 85 8z m545 -18 c-9
-7 -14 -19 -12 -27 1 -7 -2 -15 -7 -15 -6 -1 -9 2 -7 7 1 5 -5 9 -13 9 -23 0
-18 26 8 37 30 14 54 5 31 -11z m-681 -45 c7 -8 -6 -5 -31 8 -23 12 -42 26
-42 32 0 11 55 -19 73 -40z m-583 19 c0 -11 -4 -20 -9 -20 -6 0 -9 9 -8 20 1
11 5 20 9 20 4 0 8 -9 8 -20z m-605 0 c4 -6 -7 -10 -27 -9 -31 1 -32 1 -8 9
14 4 26 8 27 9 1 1 5 -3 8 -9z m1485 -10 c0 -5 -2 -10 -4 -10 -3 0 -8 5 -11
10 -3 6 -1 10 4 10 6 0 11 -4 11 -10z m-1255 -9 c-32 -5 -42 -8 -28 -11 38 -8
11 -32 -31 -28 -36 3 -36 3 -21 26 14 19 24 22 73 20 l57 -1 -50 -6z m-4005
-116 c0 -87 -3 -105 -15 -105 -12 0 -15 18 -15 105 0 87 3 105 15 105 12 0 15
-18 15 -105z m4380 95 c0 -5 -4 -10 -10 -10 -5 0 -10 5 -10 10 0 6 5 10 10 10
6 0 10 -4 10 -10z m930 -31 c0 -11 -27 -12 -34 -1 -2 4 4 9 15 9 10 1 19 -2
19 -8z m-932 -31 c296 -2 282 0 294 -22 9 -16 8 -18 -6 -13 -9 4 -131 9 -271
13 l-255 7 1 26 c1 17 3 20 6 9 4 -16 24 -18 231 -20z m354 -8 c4 0 8 8 8 18
1 15 1 16 10 1 7 -12 24 -17 62 -17 81 -1 83 -1 73 -11 -16 -15 -113 -19 -119
-6 -2 7 -17 10 -33 8 -25 -4 -29 -2 -30 24 -2 27 -1 27 9 6 6 -13 15 -23 20
-23z m-1847 20 c3 -5 2 -10 -4 -10 -5 0 -13 5 -16 10 -3 6 -2 10 4 10 5 0 13
-4 16 -10z m50 0 c4 -6 11 -8 16 -5 5 4 9 -1 9 -9 0 -11 -9 -16 -30 -16 -32 0
-33 1 -24 24 7 18 20 21 29 6z m-165 -4 c0 -3 -4 -8 -10 -11 -5 -3 -10 -1 -10
4 0 6 5 11 10 11 6 0 10 -2 10 -4z m-84 -23 c16 -21 18 -43 4 -43 -5 0 -10 7
-10 15 0 8 -4 15 -10 15 -5 0 -10 7 -10 15 0 20 10 19 26 -2z m2292 -12 c3
-10 -3 -12 -29 -6 -51 11 -61 27 -15 23 22 -2 41 -9 44 -17z m-2361 -13 c-3
-8 -6 -5 -6 6 -1 11 2 17 5 13 3 -3 4 -12 1 -19z m-1050 -10 c-3 -8 -6 -5 -6
6 -1 11 2 17 5 13 3 -3 4 -12 1 -19z m1070 -10 c-3 -8 -6 -5 -6 6 -1 11 2 17
5 13 3 -3 4 -12 1 -19z m2236 -4 c3 -20 1 -21 -25 -12 -35 12 -37 36 -4 34 17
-1 26 -8 29 -22z m32 -1 c11 -14 16 -15 28 -5 10 8 17 9 21 3 8 -12 -27 -32
-40 -23 -16 12 -37 42 -29 42 4 0 13 -8 20 -17z m-3332 -118 c4 -78 3 -94 -3
-55 -8 58 -13 176 -6 169 2 -2 6 -53 9 -114z m-1846 83 c-3 -8 -6 -5 -6 6 -1
11 2 17 5 13 3 -3 4 -12 1 -19z m43 12 c0 -5 -2 -10 -4 -10 -3 0 -8 5 -11 10
-3 6 -1 10 4 10 6 0 11 -4 11 -10z m3130 -10 c0 -5 -5 -10 -11 -10 -5 0 -7 5
-4 10 3 6 8 10 11 10 2 0 4 -4 4 -10z m1244 -21 c10 -53 7 -429 -4 -429 -6 0
-10 73 -10 199 0 190 -1 199 -19 194 -25 -6 -33 10 -21 41 14 38 46 34 54 -5z
m966 -6 c10 -9 10 -13 2 -13 -7 0 -12 5 -12 10 0 6 -6 10 -13 10 -7 0 -22 7
-33 15 -17 14 -17 14 11 3 17 -6 37 -18 45 -25z m-384 12 c9 -8 11 -15 6 -15
-5 0 -15 7 -22 15 -7 8 -9 15 -6 15 4 0 14 -7 22 -15z m-1629 -432 c-1 -76 -3
-14 -3 137 0 151 2 213 3 138 2 -76 2 -200 0 -275z m241 401 l52 -7 -2 -281
-3 -281 -35 -2 c-30 -2 -31 -1 -10 6 21 6 15 9 -31 14 -31 4 -79 5 -105 2 -33
-3 -41 -2 -24 3 23 8 22 9 -16 15 -24 4 -44 14 -48 23 -8 20 -8 478 0 498 5
13 22 16 88 16 44 0 105 -3 134 -6z m1444 -58 c-2 -5 5 -3 14 5 16 13 17 11
11 -18 -3 -18 -2 -35 3 -38 6 -4 7 1 3 12 -6 16 -5 16 11 4 14 -12 15 -16 3
-22 -17 -10 -67 11 -67 28 0 7 -9 17 -20 23 -23 12 -25 7 -9 -21 8 -15 7 -24
-2 -35 -6 -8 -9 -18 -5 -22 4 -4 13 0 19 8 19 24 57 13 57 -16 0 -18 5 -24 23
-24 31 0 40 -10 25 -27 -9 -11 -7 -15 10 -20 25 -6 30 -23 8 -23 -8 0 -23 11
-34 25 -20 26 -46 31 -71 16 -9 -6 -10 -11 -2 -15 6 -4 8 -12 5 -18 -4 -6 -2
-8 4 -4 6 3 17 -3 25 -15 11 -15 16 -17 20 -7 3 8 6 6 6 -6 1 -12 6 -16 16
-12 9 3 19 -3 25 -14 14 -25 3 -25 -35 0 -40 26 -48 25 -41 -6 5 -17 3 -23 -4
-19 -5 3 -13 -1 -16 -10 -5 -13 -9 -13 -21 -3 -9 7 -27 13 -41 14 -14 1 -28 6
-30 13 -3 8 -8 8 -15 2 -7 -5 -21 -11 -32 -14 -13 -3 -8 -5 13 -6 25 -1 35 -6
39 -21 3 -11 9 -20 14 -20 5 0 15 -11 21 -25 12 -28 28 -33 28 -10 0 13 3 13
20 3 11 -7 20 -24 20 -37 l0 -24 -102 7 c-57 4 -124 9 -150 13 l-48 6 0 210 0
210 129 -6 c116 -6 130 -5 136 11 5 14 9 12 23 -13 9 -16 15 -34 14 -39z
m-2072 40 c0 -7 -9 -16 -19 -19 -17 -4 -18 -2 -8 14 14 22 27 25 27 5z m969
-9 c12 -9 13 -9 7 1 -4 6 -3 12 2 12 6 0 12 -7 16 -15 4 -10 -1 -15 -14 -15
-27 0 -29 -59 -2 -61 16 -1 16 -2 0 -6 -25 -6 -22 -22 5 -33 22 -9 22 -9 -3
-10 -22 -2 -23 -3 -5 -8 28 -10 29 -42 1 -43 -17 -1 -17 -2 -3 -6 9 -2 17 -13
17 -24 0 -11 -7 -19 -17 -20 -17 -1 -17 -2 0 -6 9 -2 17 -8 17 -13 0 -5 -7 -7
-15 -4 -9 4 -15 0 -15 -10 0 -9 8 -17 18 -17 16 -1 16 -2 0 -6 -11 -3 -17 -13
-16 -26 0 -12 -6 -42 -15 -67 l-16 -45 20 24 c31 38 49 21 51 -51 l2 -63 3 63
4 62 34 0 c29 0 35 4 35 20 0 11 -7 23 -16 27 -15 5 -15 7 0 15 27 15 18 28
-21 28 -28 0 -34 3 -23 10 8 5 25 7 37 3 25 -6 30 6 11 25 -9 9 -9 12 0 12 7
0 12 5 12 10 0 7 -13 8 -35 4 -28 -5 -35 -3 -35 9 0 10 11 17 32 19 17 2 33
10 36 18 4 12 2 13 -9 3 -7 -7 -24 -13 -38 -12 l-26 1 25 8 c24 8 24 8 3 9
-16 1 -23 7 -23 20 0 17 6 19 38 15 l37 -4 -40 14 -40 14 40 2 40 3 -35 6 -35
6 35 22 35 23 -37 0 c-27 0 -38 4 -38 15 0 17 16 20 25 5 7 -12 45 -13 45 -2
0 5 -15 13 -32 19 -18 5 -24 8 -13 7 10 -2 27 4 37 12 12 12 27 14 57 9 l41
-7 0 -198 0 -197 38 -7 c20 -3 59 -6 85 -6 l48 0 -3 -107 -3 -108 -40 -2 -40
-1 35 7 c31 6 27 8 -37 15 -40 4 -78 4 -84 1 -5 -4 -43 -3 -82 1 -57 6 -66 9
-42 14 26 5 23 7 -26 14 -31 4 -80 5 -110 2 -40 -4 -48 -3 -29 4 18 7 6 8 -45
5 -51 -3 -62 -2 -40 5 30 9 30 9 -7 7 -20 -1 -40 2 -44 6 -4 4 -18 7 -31 7
-22 0 -23 3 -23 74 0 50 4 75 13 79 10 4 10 39 2 168 -5 90 -9 182 -7 203 l3
39 127 -7 c72 -4 133 -12 141 -19z m570 -134 c0 -87 -4 -176 -8 -198 l-9 -40
-1 42 c0 23 -5 44 -9 47 -5 3 -7 19 -6 35 1 17 -1 31 -6 31 -4 0 -11 19 -15
43 -8 49 -12 43 -24 -38 -7 -51 -9 -38 -10 88 l-1 147 45 0 45 0 -1 -157z
m174 147 l47 0 0 -185 c0 -102 -4 -185 -8 -185 -5 0 -17 7 -28 15 -23 18 -74
20 -74 3 -1 -8 -6 -6 -14 5 -7 9 -23 17 -36 17 -16 0 -20 4 -16 16 3 8 2 13
-3 10 -12 -8 -20 70 -20 203 l0 114 52 -7 c29 -3 73 -6 100 -6z m-676 -6 c-3
-3 -12 -4 -19 -1 -8 3 -5 6 6 6 11 1 17 -2 13 -5z m1107 -10 c8 -22 8 -24 -7
-24 -7 0 -13 9 -13 20 0 24 11 26 20 4z m-879 -5 c-24 -6 -20 -8 23 -5 40 2
52 0 52 -11 0 -8 -4 -12 -9 -9 -4 3 -28 2 -52 -3 l-44 -9 53 -1 52 -1 0 -35 0
-34 -67 4 -68 4 60 -9 c79 -13 89 -18 40 -21 l-40 -2 40 -7 40 -7 -50 -2 c-27
-2 -44 -5 -37 -8 6 -2 10 -8 7 -13 -3 -4 4 -10 15 -13 11 -3 18 -2 15 3 -3 4
6 10 20 12 19 4 25 1 25 -13 0 -13 -8 -19 -22 -20 -13 0 -17 -3 -9 -6 11 -5
11 -7 0 -14 -10 -6 -8 -9 9 -9 15 0 22 -6 22 -20 0 -17 -4 -19 -27 -14 -16 4
-32 10 -36 14 -5 4 -27 5 -51 3 -37 -5 -42 -3 -42 16 0 12 4 21 8 21 4 0 5 7
2 15 -5 11 1 15 21 15 14 0 24 4 21 9 -3 4 -18 6 -32 3 -19 -3 -25 -1 -20 7 4
6 17 12 29 12 20 1 21 2 2 6 -26 7 -37 25 -22 35 9 6 9 8 0 8 -19 0 -15 37 5
45 16 7 15 8 -3 15 -13 6 -15 9 -5 9 13 1 13 2 0 11 -12 8 -10 10 10 11 l25 1
-25 8 c-18 6 -9 8 35 8 50 0 55 -2 30 -9z m105 -4 c0 -8 -4 -15 -10 -15 -5 0
-10 7 -10 15 0 8 5 15 10 15 6 0 10 -7 10 -15z m900 0 c-10 -12 -9 -15 6 -15
13 0 15 -3 7 -11 -16 -16 -43 -3 -43 21 0 14 7 20 21 20 18 0 19 -2 9 -15z
m395 -4 c3 -5 1 -12 -5 -16 -5 -3 -10 1 -10 9 0 18 6 21 15 7z m-30 -11 c-3
-5 -12 -10 -18 -10 -7 0 -6 4 3 10 19 12 23 12 15 0z m-2521 -16 c3 -8 2 -12
-4 -9 -6 3 -10 1 -10 -5 0 -6 -5 -8 -10 -5 -8 5 -7 11 1 21 14 18 16 17 23 -2z
m880 0 c4 -10 1 -14 -6 -12 -15 5 -23 28 -10 28 5 0 13 -7 16 -16z m1610 0 c5
-14 4 -15 -9 -4 -17 14 -19 20 -6 20 5 0 12 -7 15 -16z m-1234 -31 c0 -30 -9
-27 -15 6 -2 11 0 21 6 21 5 0 9 -12 9 -27z m-1888 -15 c-7 -7 -12 -8 -12 -2
0 14 12 26 19 19 2 -3 -1 -11 -7 -17z m796 -10 c-2 -20 -8 -32 -15 -30 -7 1
-13 -6 -13 -16 0 -19 -35 -28 -45 -11 -4 5 -12 9 -18 9 -7 0 -6 -4 3 -10 8 -5
11 -10 5 -10 -5 0 -16 4 -23 9 -11 6 -10 11 3 25 19 19 21 19 46 6 15 -8 19
-8 17 2 -2 7 3 12 10 10 8 -1 11 2 7 8 -9 14 1 40 15 40 7 0 10 -14 8 -32z
m762 28 c0 -2 -7 -6 -15 -10 -8 -3 -15 -1 -15 4 0 6 7 10 15 10 8 0 15 -2 15
-4z m-810 -31 c-7 -9 -15 -13 -19 -10 -3 3 1 10 9 15 21 14 24 12 10 -5z
m1140 -30 c0 -14 -4 -25 -8 -25 -4 0 -9 11 -10 25 -1 14 3 25 8 25 6 0 10 -11
10 -25z m993 -15 c-7 -8 -22 24 -16 34 4 5 10 1 13 -10 4 -10 6 -21 3 -24z
m-3486 -42 c-2 -13 -4 -3 -4 22 0 25 2 35 4 23 2 -13 2 -33 0 -45z m1217 33
c3 -5 16 -7 27 -4 21 6 21 5 4 -20 -14 -22 -21 -25 -36 -16 -10 5 -19 19 -19
29 0 21 15 27 24 11z m-3307 -17 c-3 -3 -12 -4 -19 -1 -8 3 -5 6 6 6 11 1 17
-2 13 -5z m4583 -49 c0 -30 -4 -55 -9 -55 -6 0 -9 96 -2 108 7 13 11 -7 11
-53z m-1173 39 c-3 -3 -12 -4 -19 -1 -8 3 -5 6 6 6 11 1 17 -2 13 -5z m-3370
-10 c-3 -3 -12 -4 -19 -1 -8 3 -5 6 6 6 11 1 17 -2 13 -5z m-50 -10 c-3 -3
-12 -4 -19 -1 -8 3 -5 6 6 6 11 1 17 -2 13 -5z m5507 -6 c-3 -4 -9 -8 -15 -8
-5 0 -9 4 -9 8 0 5 7 9 15 9 8 0 12 -4 9 -9z m-74 -18 c13 -8 13 -10 -2 -10
-9 0 -20 5 -23 10 -8 13 5 13 25 0z m-2028 -82 c8 6 18 8 23 4 4 -4 5 3 2 16
-6 25 -3 26 24 12 20 -11 27 -40 9 -40 -5 0 -10 -7 -10 -16 0 -8 -4 -12 -10
-9 -5 3 -10 0 -10 -8 0 -10 -8 -13 -26 -9 -16 3 -23 9 -20 18 7 19 -47 47 -62
32 -9 -9 -9 -4 0 19 l11 30 27 -31 c23 -25 30 -28 42 -18z m2668 42 c0 -5 -5
-10 -11 -10 -5 0 -7 5 -4 10 3 6 8 10 11 10 2 0 4 -4 4 -10z m-1572 -15 c1 -6
-7 -10 -18 -9 -62 2 -80 5 -80 13 0 13 94 9 98 -4z m922 -5 c0 -5 -4 -10 -10
-10 -5 0 -10 5 -10 10 0 6 5 10 10 10 6 0 10 -4 10 -10z m-2174 -25 c-3 -9
-11 -13 -16 -10 -8 5 -7 11 1 21 14 18 24 11 15 -11z m1300 18 c-15 -4 -16 -7
-5 -13 21 -13 8 -18 -34 -12 -38 4 -38 5 -15 17 13 7 34 13 48 13 19 0 20 -2
6 -5z m-116 -18 c0 -9 -6 -12 -15 -9 -8 4 -15 10 -15 15 0 5 7 9 15 9 8 0 15
-7 15 -15z m1784 -10 c-9 -14 -20 -25 -25 -25 -13 0 -11 7 8 30 25 28 37 25
17 -5z m117 -2 c13 -16 12 -17 -3 -4 -10 7 -18 15 -18 17 0 8 8 3 21 -13z
m-2961 -12 c0 -3 -7 -15 -15 -25 -8 -11 -15 -32 -15 -48 0 -15 -4 -28 -10 -28
-5 0 -10 11 -10 24 0 14 5 28 10 31 16 10 12 35 -6 35 -8 0 -13 4 -10 9 6 10
56 12 56 2z m1074 -7 c9 -3 13 -11 9 -17 -4 -6 0 -8 10 -4 10 3 17 2 17 -3 0
-17 -25 -11 -43 10 -18 22 -17 23 7 14z m112 -17 c1 -20 -2 -22 -31 -19 -26 3
-33 9 -32 23 1 14 9 19 32 19 24 0 30 -4 31 -23z m369 13 c-3 -5 -12 -7 -20
-3 -21 7 -19 13 6 13 11 0 18 -4 14 -10z m-642 -16 c-4 -10 -8 -12 -13 -4 -4
6 -15 8 -25 4 -13 -5 -16 -4 -11 4 4 7 18 12 31 12 18 0 23 -4 18 -16z m-1003
-24 c0 -5 -5 -10 -11 -10 -5 0 -7 5 -4 10 3 6 8 10 11 10 2 0 4 -4 4 -10z
m-3160 -10 c0 -5 -15 -9 -32 -9 l-33 1 30 8 c17 4 31 8 33 9 1 0 2 -3 2 -9z
m347 -16 c-2 -2 -12 -1 -22 3 -18 6 -18 7 1 13 17 7 33 -5 21 -16z m196 -11
c-7 -2 -19 -2 -25 0 -7 3 -2 5 12 5 14 0 19 -2 13 -5z m2802 -7 c18 -17 8 -28
-15 -16 -10 5 -21 6 -26 2 -5 -4 -2 1 5 11 16 21 19 21 36 3z m1126 -59 c1
-58 4 -67 20 -67 12 0 19 -7 19 -18 0 -25 -28 -62 -48 -62 -15 0 -17 11 -14
97 3 95 8 131 17 121 3 -2 5 -34 6 -71z m388 57 c12 -12 -14 -11 -124 1 l-120
14 120 -5 c66 -3 121 -7 124 -10z m-1547 -26 c17 -6 1 -27 -29 -39 -13 -5 -22
-13 -19 -17 2 -4 1 -14 -5 -22 -7 -12 -9 -10 -9 8 0 12 -5 22 -11 22 -5 0 -7
-6 -3 -12 6 -9 3 -9 -9 0 -9 8 -22 10 -29 6 -9 -6 -9 -3 1 10 10 11 16 13 21
6 7 -11 30 17 43 53 6 16 9 17 22 4 8 -9 20 -17 27 -19z m1753 11 c72 -6 134
-15 139 -19 5 -5 -36 -8 -93 -7 -55 1 -101 5 -101 10 0 4 -15 7 -32 7 -51 0
-108 12 -108 22 0 5 15 7 33 4 17 -3 91 -11 162 -17z m-1815 1 c0 -5 -5 -10
-11 -10 -5 0 -7 5 -4 10 3 6 8 10 11 10 2 0 4 -4 4 -10z m1337 -12 c-3 -8 -6
-5 -6 6 -1 11 2 17 5 13 3 -3 4 -12 1 -19z m114 0 c0 -7 3 -8 5 -3 4 10 55 10
122 -1 31 -5 32 -7 32 -50 0 -38 -3 -45 -17 -40 -10 2 -58 7 -108 10 -49 2
-76 2 -60 0 57 -9 75 -14 75 -25 0 -7 -7 -8 -17 -4 -10 4 -37 7 -60 6 -23 -1
-44 2 -47 8 -3 5 -15 7 -26 4 -11 -3 -20 0 -20 6 0 6 15 12 33 13 l32 1 -32 4
c-39 5 -44 28 -13 61 23 25 99 32 101 10z m-4901 -8 c0 -5 -5 -10 -11 -10 -5
0 -7 5 -4 10 3 6 8 10 11 10 2 0 4 -4 4 -10z m50 -10 c3 -1 8 -2 13 -1 4 0 7
-3 7 -9 0 -5 -3 -10 -7 -11 -5 0 -17 -2 -28 -4 -15 -3 -21 1 -21 14 0 16 12
20 36 11z m70 -4 c-7 -7 -13 -7 -20 0 -6 6 -3 10 10 10 13 0 16 -4 10 -10z
m35 4 c-4 -6 8 -10 29 -10 37 0 42 -5 27 -29 -7 -11 -15 -12 -33 -5 -32 14
-58 7 -51 -13 4 -11 2 -14 -5 -9 -17 10 -15 33 6 55 18 20 38 28 27 11z m3425
-7 c0 -10 -5 -11 -19 -4 -10 6 -22 7 -26 3 -5 -4 -6 -2 -2 3 8 15 47 13 47 -2z
m1579 11 c29 -6 31 -9 31 -50 0 -48 1 -48 -74 -38 l-46 7 0 43 c0 42 1 44 29
44 16 0 43 -3 60 -6z m563 -22 c-11 -11 -23 -18 -27 -14 -3 3 4 14 17 23 29
23 35 16 10 -9z m-2372 14 c0 -3 -4 -8 -10 -11 -5 -3 -10 -1 -10 4 0 6 5 11
10 11 6 0 10 -2 10 -4z m2010 -10 c43 -3 54 -8 52 -20 -2 -11 2 -14 13 -9 11
3 15 13 12 25 -5 19 -5 19 14 2 10 -9 17 -19 15 -22 -3 -2 -1 -15 4 -28 8 -19
6 -22 -7 -17 -12 5 -14 1 -8 -15 4 -13 2 -22 -4 -22 -6 0 -11 7 -11 16 0 12
-6 13 -22 8 -13 -4 -40 -8 -61 -9 -26 0 -42 -6 -48 -18 -12 -21 -49 -23 -49
-2 0 9 -11 21 -25 27 -19 9 -25 19 -25 45 0 26 4 33 20 33 16 0 20 -7 20 -36
0 -23 4 -33 11 -28 7 4 9 22 6 45 -5 36 -3 38 16 34 12 -3 47 -7 77 -9z
m-5380 -6 c0 -5 -2 -10 -4 -10 -3 0 -8 5 -11 10 -3 6 -1 10 4 10 6 0 11 -4 11
-10z m115 0 c3 -5 1 -10 -4 -10 -6 0 -11 5 -11 10 0 6 2 10 4 10 3 0 8 -4 11
-10z m163 -12 c-2 -6 -13 -12 -24 -14 -19 -3 -19 -3 0 12 24 17 29 18 24 2z
m5404 -20 c-6 -6 -15 -8 -19 -4 -4 4 -1 11 7 16 19 12 27 3 12 -12z m-2158
-12 c-5 -14 -9 -15 -15 -5 -5 8 -3 17 4 21 15 9 19 4 11 -16z m2126 14 c0 -5
-4 -10 -10 -10 -5 0 -10 5 -10 10 0 6 5 10 10 10 6 0 10 -4 10 -10z m-2068
-25 c6 -28 -6 -34 -16 -9 -5 14 0 34 8 34 2 0 6 -11 8 -25z m311 18 c-7 -2
-21 -2 -30 0 -10 3 -4 5 12 5 17 0 24 -2 18 -5z m-1456 -9 c-3 -3 -12 -4 -19
-1 -8 3 -5 6 6 6 11 1 17 -2 13 -5z m1616 -11 c-7 -2 -21 -2 -30 0 -10 3 -4 5
12 5 17 0 24 -2 18 -5z m1001 -9 c9 -3 16 -11 16 -16 0 -6 -8 -7 -17 -3 -10 4
-30 7 -45 6 -16 -1 -28 3 -28 9 0 11 49 14 74 4z m-1843 -21 c13 -16 12 -17
-3 -4 -17 13 -22 21 -14 21 2 0 10 -8 17 -17z m1569 -8 c0 -26 -14 -33 -25
-15 -9 14 1 40 15 40 5 0 10 -11 10 -25z m170 5 c47 -5 110 -13 140 -16 30 -4
58 -11 61 -16 3 -5 18 -6 32 -2 24 5 27 3 27 -17 -1 -21 -2 -22 -11 -6 -6 9
-15 15 -20 11 -6 -4 -5 -11 2 -21 11 -12 10 -14 -2 -13 -7 1 -25 2 -38 1 -47
-2 -5 -24 48 -25 41 -1 51 -4 51 -18 0 -10 7 -18 15 -18 14 0 55 -37 55 -51 0
-4 -8 -6 -17 -5 -13 1 -18 -6 -18 -26 0 -14 -4 -30 -8 -34 -4 -5 -5 -1 -2 7 4
12 -5 23 -29 37 -20 12 -36 18 -36 13 0 -12 26 -32 32 -25 3 2 8 -3 12 -12 6
-15 1 -16 -44 -11 -28 3 -48 2 -45 -3 3 -4 -3 -7 -12 -6 -9 2 -23 14 -31 27
-13 23 -13 23 2 5 9 -11 16 -15 16 -9 0 7 12 10 30 8 28 -4 43 9 19 17 -6 2
-12 16 -12 31 -2 23 -6 27 -32 26 -17 0 -23 -3 -15 -6 8 -4 20 -12 27 -19 11
-10 10 -15 -4 -22 -24 -14 -60 5 -71 37 -9 25 -13 26 -163 44 -85 11 -166 21
-181 24 -31 6 -36 24 -13 43 13 10 15 9 15 -9 0 -11 5 -21 10 -21 6 0 10 9 10
20 0 21 19 27 36 11 11 -10 303 -46 311 -38 8 8 -27 15 -152 27 -144 15 -145
15 -145 51 0 28 2 30 33 25 17 -3 70 -10 117 -16z m170 10 c0 -5 -9 -10 -20
-10 -11 0 -20 5 -20 10 0 6 9 10 20 10 11 0 20 -4 20 -10z m-1637 -26 c-6 -16
-33 -19 -33 -4 0 6 5 10 11 10 5 0 7 4 4 10 -3 5 0 7 9 4 8 -3 12 -12 9 -20z
m815 19 c-10 -2 -26 -2 -35 0 -10 3 -2 5 17 5 19 0 27 -2 18 -5z m938 -2 c-4
-5 0 -11 6 -14 7 -2 9 -8 5 -13 -9 -10 -28 16 -21 28 3 4 7 8 10 8 3 0 3 -4 0
-9z m-1966 -11 c0 -5 7 -10 15 -10 8 0 15 -4 15 -8 0 -5 -7 -9 -15 -9 -8 0
-15 4 -15 9 0 5 -9 4 -19 -2 -18 -9 -21 -2 -12 28 3 7 31 0 31 -8z m2090 -7
c0 -5 -5 -15 -10 -23 -8 -12 -10 -11 -10 8 0 12 5 22 10 22 6 0 10 -3 10 -7z
m-812 -10 c-10 -2 -26 -2 -35 0 -10 3 -2 5 17 5 19 0 27 -2 18 -5z m864 -15
c-7 -7 -12 -8 -12 -2 0 14 12 26 19 19 2 -3 -1 -11 -7 -17z m64 -4 c-5 -13 -2
-15 14 -11 11 3 18 1 14 -4 -3 -5 -14 -9 -25 -9 -10 0 -18 -3 -18 -7 3 -20 -2
-27 -11 -13 -7 12 -12 12 -22 2 -9 -9 -9 -12 1 -12 7 0 9 -5 5 -11 -4 -8 -9
-7 -15 2 -4 7 -4 18 1 25 6 6 7 13 4 17 -3 3 4 8 15 12 12 3 21 11 21 16 0 5
5 9 11 9 6 0 8 -7 5 -16z m364 -14 c0 -5 -4 -10 -10 -10 -5 0 -10 5 -10 10 0
6 5 10 10 10 6 0 10 -4 10 -10z m-285 -40 c3 -5 2 -10 -4 -10 -5 0 -13 5 -16
10 -3 6 -2 10 4 10 5 0 13 -4 16 -10z m-120 -70 c3 -5 1 -10 -4 -10 -6 0 -11
5 -11 10 0 6 2 10 4 10 3 0 8 -4 11 -10z m-138 -72 c-3 -8 -6 -5 -6 6 -1 11 2
17 5 13 3 -3 4 -12 1 -19z m216 -23 c13 -18 14 -25 5 -25 -12 0 -48 34 -48 45
0 14 27 1 43 -20z m1084 19 c-3 -3 -12 -4 -19 -1 -8 3 -5 6 6 6 11 1 17 -2 13
-5z m-1482 -38 c16 -16 9 -57 -9 -50 -7 3 -12 -6 -11 -23 0 -26 -3 -28 -39
-27 -42 2 -66 22 -66 57 0 18 1 18 18 1 16 -17 17 -17 20 2 6 30 18 37 35 20
13 -13 17 -13 27 -1 6 8 9 19 5 25 -9 15 4 12 20 -4z m175 -16 c0 -5 -7 -7
-15 -4 -8 4 -15 8 -15 10 0 2 7 4 15 4 8 0 15 -4 15 -10z m288 -13 c6 -7 7
-18 2 -26 -7 -12 -11 -11 -25 2 -9 10 -22 15 -28 11 -7 -3 -3 2 7 10 24 19 30
20 44 3z m-5821 -19 c-3 -8 -6 -5 -6 6 -1 11 2 17 5 13 3 -3 4 -12 1 -19z
m5467 -20 c-8 -12 -34 11 -34 30 0 13 3 12 20 -3 11 -10 17 -22 14 -27z m98 2
c9 -20 10 -45 1 -37 -3 4 -13 1 -22 -6 -14 -10 -14 -10 -3 5 14 17 9 38 -8 38
-5 0 -7 -8 -4 -17 5 -17 5 -17 -6 0 -6 9 -8 22 -5 27 9 15 39 8 47 -10z m292
1 c3 -5 -1 -11 -9 -15 -9 -3 -15 0 -15 9 0 16 16 20 24 6z m-484 -26 c0 -8 -2
-15 -4 -15 -2 0 -6 7 -10 15 -3 8 -1 15 4 15 6 0 10 -7 10 -15z m114 1 c-21
-15 -30 -14 -19 3 3 6 14 11 23 11 13 0 13 -2 -4 -14z m606 -20 c-7 -7 -14 -6
-21 1 -9 9 -7 12 9 10 14 -1 18 -5 12 -11z m-800 -16 c0 -5 -2 -10 -4 -10 -3
0 -8 5 -11 10 -3 6 -1 10 4 10 6 0 11 -4 11 -10z m105 -20 c3 -5 -1 -10 -9
-10 -9 0 -16 5 -16 10 0 6 4 10 9 10 6 0 13 -4 16 -10z m260 -20 c-3 -5 -11
-10 -16 -10 -6 0 -7 5 -4 10 3 6 11 10 16 10 6 0 7 -4 4 -10z m-1068 -16 c-3
-3 -12 -4 -19 -1 -8 3 -5 6 6 6 11 1 17 -2 13 -5z m1049 -29 c9 -19 9 -22 -2
-18 -8 3 -14 10 -14 15 0 6 -7 8 -15 4 -10 -3 -15 1 -15 13 0 26 32 17 46 -14z
m-285 -8 c-1 -12 -15 -9 -19 4 -3 6 1 10 8 8 6 -3 11 -8 11 -12z m50 -20 c-10
-9 -11 -8 -5 6 3 10 9 15 12 12 3 -3 0 -11 -7 -18z m-95 -18 c14 -15 15 -20 4
-17 -16 3 -30 18 -30 31 0 11 6 8 26 -14z m-1006 -53 c0 -11 -19 -15 -25 -6
-3 5 1 10 9 10 9 0 16 -2 16 -4z m-17 -35 c9 -10 8 -11 -6 -5 -9 3 -23 2 -30
-4 -8 -7 -16 -6 -24 3 -22 24 37 29 60 6z m37 15 c0 -3 -4 -8 -10 -11 -5 -3
-10 -1 -10 4 0 6 5 11 10 11 6 0 10 -2 10 -4z m-190 -16 c0 -5 -5 -10 -11 -10
-5 0 -7 5 -4 10 3 6 8 10 11 10 2 0 4 -4 4 -10z m-4126 -55 c3 -8 1 -15 -4
-15 -6 0 -10 7 -10 15 0 8 2 15 4 15 2 0 6 -7 10 -15z m6 -66 c0 -16 -4 -29
-8 -29 -5 0 -8 15 -8 34 1 41 16 37 16 -5z m4890 1 c-13 -11 -26 -18 -28 -15
-6 6 28 34 42 35 5 0 -1 -9 -14 -20z m-40 -8 c0 -9 -5 -10 -19 -3 -10 6 -21 8
-24 5 -3 -3 -8 -1 -11 5 -4 6 5 9 24 8 17 -1 30 -8 30 -15z m-4847 -214 c-2
-4 -8 -27 -12 -50 -6 -32 -8 -18 -6 57 3 136 7 152 15 70 4 -38 6 -73 3 -77z
m4282 22 c-3 -5 -12 -7 -20 -3 -21 7 -19 13 6 13 11 0 18 -4 14 -10z m1790
-68 c-3 -3 -11 0 -18 7 -9 10 -8 11 6 5 10 -3 15 -9 12 -12z m111 -36 c2 -14
0 -15 -12 -5 -17 14 -19 32 -2 27 6 -2 12 -12 14 -22z m-44 -35 c30 -15 49
-58 20 -45 -9 3 -26 7 -37 9 -14 1 -21 10 -23 29 -2 16 0 26 5 24 4 -2 20 -10
35 -17z m471 -18 c-7 -2 -21 -2 -30 0 -10 3 -4 5 12 5 17 0 24 -2 18 -5z
m-6596 -95 c-3 -7 -5 -2 -5 12 0 14 2 19 5 13 2 -7 2 -19 0 -25z m113 -9 c0
-5 4 -8 9 -4 5 3 13 0 17 -6 4 -7 3 -9 -3 -6 -6 4 -16 0 -23 -8 -14 -17 -56
-20 -65 -4 -8 13 23 38 48 39 9 0 17 -5 17 -11z m-170 -18 c0 -17 29 -20 45
-5 13 14 15 14 16 -3 0 -10 1 -32 2 -50 1 -17 -1 -29 -4 -27 -4 2 -10 -7 -13
-21 -10 -39 -22 -30 -36 30 -7 31 -17 58 -22 61 -11 7 -10 24 2 24 6 0 10 -4
10 -9z m200 -21 c-8 -5 -11 -10 -6 -10 5 0 3 -6 -4 -14 -12 -15 -40 -11 -40 5
0 5 10 14 23 19 30 12 46 12 27 0z m-88 -97 c-6 -3 -10 -9 -7 -13 8 -12 -70
-49 -84 -40 -20 12 41 55 81 57 13 0 17 -1 10 -4z"/>
<path d="M6708 4093 c6 -2 18 -2 25 0 6 3 1 5 -13 5 -14 0 -19 -2 -12 -5z"/>
<path d="M6177 4145 c-4 -8 -2 -17 3 -20 6 -4 10 3 10 14 0 25 -6 27 -13 6z"/>
<path d="M6148 4063 c7 -3 16 -2 19 1 4 3 -2 6 -13 5 -11 0 -14 -3 -6 -6z"/>
<path d="M5081 3944 c0 -11 3 -14 6 -6 3 7 2 16 -1 19 -3 4 -6 -2 -5 -13z"/>
<path d="M4938 3863 c6 -2 18 -2 25 0 6 3 1 5 -13 5 -14 0 -19 -2 -12 -5z"/>
<path d="M4165 3680 c3 -5 8 -10 11 -10 2 0 4 5 4 10 0 6 -5 10 -11 10 -5 0
-7 -4 -4 -10z"/>
<path d="M4155 3650 c-3 -5 -1 -10 4 -10 6 0 11 5 11 10 0 6 -2 10 -4 10 -3 0
-8 -4 -11 -10z"/>
<path d="M3803 3770 c-7 -29 -7 -40 1 -40 26 1 36 17 30 48 -9 43 -18 40 -31
-8z"/>
<path d="M3708 3673 c7 -3 16 -2 19 1 4 3 -2 6 -13 5 -11 0 -14 -3 -6 -6z"/>
<path d="M3553 3653 c9 -2 25 -2 35 0 9 3 1 5 -18 5 -19 0 -27 -2 -17 -5z"/>
<path d="M5045 3530 c-16 -7 -17 -9 -3 -9 9 -1 20 4 23 9 7 11 7 11 -20 0z"/>
<path d="M4378 3393 c7 -3 16 -2 19 1 4 3 -2 6 -13 5 -11 0 -14 -3 -6 -6z"/>
<path d="M6772 2749 c2 -14 -2 -24 -9 -25 -7 -1 -16 -2 -20 -3 -8 -1 28 -41
38 -41 5 0 13 9 19 20 8 16 8 20 -2 18 -8 -2 -12 5 -10 19 2 12 -2 24 -8 28
-8 5 -10 -1 -8 -16z"/>
<path d="M6635 2590 c3 -5 26 -10 51 -10 24 0 44 5 44 10 0 6 -23 10 -51 10
-31 0 -48 -4 -44 -10z"/>
<path d="M6775 2590 c3 -5 8 -10 11 -10 2 0 4 5 4 10 0 6 -5 10 -11 10 -5 0
-7 -4 -4 -10z"/>
<path d="M6600 2540 c0 -5 5 -10 11 -10 5 0 7 5 4 10 -3 6 -8 10 -11 10 -2 0
-4 -4 -4 -10z"/>
<path d="M5680 2780 c0 -5 5 -10 11 -10 5 0 7 5 4 10 -3 6 -8 10 -11 10 -2 0
-4 -4 -4 -10z"/>
<path d="M5724 2764 c-17 -14 -17 -15 -1 -10 10 3 28 6 40 6 18 0 19 2 7 10
-20 13 -23 13 -46 -6z"/>
<path d="M5648 2693 c7 -3 16 -2 19 1 4 3 -2 6 -13 5 -11 0 -14 -3 -6 -6z"/>
<path d="M5713 2693 c15 -2 39 -2 55 0 15 2 2 4 -28 4 -30 0 -43 -2 -27 -4z"/>
<path d="M5688 2673 c12 -2 32 -2 45 0 12 2 2 4 -23 4 -25 0 -35 -2 -22 -4z"/>
<path d="M5730 2656 c0 -2 7 -7 16 -10 8 -3 12 -2 9 4 -6 10 -25 14 -25 6z"/>
<path d="M5668 2543 c6 -2 18 -2 25 0 6 3 1 5 -13 5 -14 0 -19 -2 -12 -5z"/>
<path d="M6022 2865 c0 -16 2 -22 5 -12 2 9 2 23 0 30 -3 6 -5 -1 -5 -18z"/>
<path d="M3570 3085 c0 -8 7 -15 15 -15 8 0 15 7 15 15 0 8 -7 15 -15 15 -8 0
-15 -7 -15 -15z"/>
<path d="M6461 2041 c-10 -7 -10 -10 -1 -16 6 -4 16 -3 22 3 13 13 -4 23 -21
13z"/>
<path d="M6412 1940 c0 -14 2 -19 5 -12 2 6 2 18 0 25 -3 6 -5 1 -5 -13z"/>
<path d="M6275 1940 c-3 -5 -1 -10 4 -10 6 0 11 5 11 10 0 6 -2 10 -4 10 -3 0
-8 -4 -11 -10z"/>
<path d="M6347 1920 c3 -11 9 -17 15 -14 5 3 4 12 -3 20 -16 19 -18 18 -12 -6z"/>
<path d="M6487 1919 c-9 -5 -23 -7 -30 -4 -6 4 -3 -1 8 -9 23 -19 37 -16 41 7
1 9 2 17 1 17 -1 0 -10 -5 -20 -11z"/>
<path d="M5518 2013 c7 -3 16 -2 19 1 4 3 -2 6 -13 5 -11 0 -14 -3 -6 -6z"/>
<path d="M5563 1583 c9 -2 25 -2 35 0 9 3 1 5 -18 5 -19 0 -27 -2 -17 -5z"/>
<path d="M5748 2083 c7 -3 16 -2 19 1 4 3 -2 6 -13 5 -11 0 -14 -3 -6 -6z"/>
<path d="M1295 1680 c-3 -5 -1 -10 4 -10 6 0 11 5 11 10 0 6 -2 10 -4 10 -3 0
-8 -4 -11 -10z"/>
<path d="M1345 1670 c4 -6 11 -8 16 -5 14 9 11 15 -7 15 -8 0 -12 -5 -9 -10z"/>
<path d="M6558 1633 c7 -3 16 -2 19 1 4 3 -2 6 -13 5 -11 0 -14 -3 -6 -6z"/>
<path d="M6390 1408 c0 -4 7 -8 15 -8 8 0 15 4 15 8 0 5 -7 9 -15 9 -8 0 -15
-4 -15 -9z"/>
<path d="M6200 1250 c-13 -8 -12 -10 3 -10 9 0 17 5 17 10 0 12 -1 12 -20 0z"/>
<path d="M6150 1230 c0 -5 14 -10 32 -10 36 0 35 4 -4 14 -17 4 -28 2 -28 -4z"/>
<path d="M4807 4966 c-3 -7 -1 -18 4 -23 13 -13 1 -41 -19 -46 -10 -3 -7 -5 8
-6 23 -1 26 -5 26 -45 1 -38 -1 -42 -12 -31 -8 7 -14 21 -14 29 0 9 -7 16 -15
16 -8 0 -15 -7 -15 -15 0 -8 4 -15 8 -15 7 0 12 -23 15 -67 0 -6 7 -8 16 -5 9
3 0 -9 -19 -28 -22 -21 -30 -35 -23 -37 8 -3 11 -14 7 -29 -3 -13 -2 -24 2
-25 5 -1 21 -2 37 -3 15 -2 30 -6 34 -10 4 -4 -5 -5 -21 -2 -23 4 -26 3 -16
-10 7 -7 19 -14 26 -14 8 0 11 -6 7 -16 -5 -14 -3 -14 16 -2 18 11 23 11 32
-2 8 -11 9 -9 5 12 -6 26 -5 27 19 18 25 -10 33 -2 15 16 -5 5 -10 26 -12 47
-1 20 -5 37 -9 37 -4 0 -5 23 -4 50 1 28 -1 50 -6 50 -5 0 -9 -7 -9 -15 0 -8
-5 -15 -11 -15 -5 0 -7 5 -3 11 3 6 1 15 -7 19 -12 8 -15 16 -23 77 -2 17 -9
39 -14 50 -5 10 -7 24 -5 31 6 17 -14 15 -20 -2z m69 -223 c-10 -10 -19 5 -10
18 6 11 8 11 12 0 2 -7 1 -15 -2 -18z m24 -73 c0 -5 -5 -10 -11 -10 -5 0 -7 5
-4 10 3 6 8 10 11 10 2 0 4 -4 4 -10z"/>
<path d="M4424 4878 c5 -26 2 -36 -16 -51 l-23 -19 27 5 c24 3 26 1 26 -30 0
-18 -4 -36 -9 -39 -5 -3 -9 6 -9 20 0 14 -3 26 -7 25 -16 -1 -48 -18 -37 -18
17 -1 26 -61 13 -77 -14 -17 2 -18 20 -1 11 10 13 10 7 0 -4 -7 -2 -13 5 -13
16 0 -9 -30 -33 -39 -22 -8 -9 -31 20 -34 12 -1 22 -5 22 -10 0 -5 -7 -7 -15
-3 -18 6 -20 -5 -4 -21 6 -6 9 -19 7 -29 -2 -11 3 -24 12 -31 13 -11 13 -12
-3 -13 -17 0 -17 -1 -3 -16 9 -8 13 -21 9 -27 -3 -7 3 -4 14 6 16 14 22 15 26
5 3 -7 6 0 6 15 1 24 3 26 20 17 30 -15 48 -12 25 5 -16 13 -17 16 -4 25 10 7
11 12 4 18 -17 11 -24 40 -11 45 8 2 7 12 -2 35 -7 18 -11 43 -9 57 3 14 1 25
-4 25 -5 0 -6 5 -3 10 3 6 1 10 -5 10 -7 0 -9 7 -6 17 4 9 3 19 -2 22 -11 8
-44 100 -43 124 0 9 -5 17 -11 17 -7 0 -8 -12 -4 -32z m26 -158 c0 -5 -2 -10
-4 -10 -3 0 -8 5 -11 10 -3 6 -1 10 4 10 6 0 11 -4 11 -10z m35 -170 c-3 -5
-10 -10 -16 -10 -5 0 -9 5 -9 10 0 6 7 10 16 10 8 0 12 -4 9 -10z"/>
<path d="M5566 4896 c5 -14 34 -31 34 -20 0 7 -27 34 -34 34 -3 0 -3 -6 0 -14z"/>
<path d="M4697 4844 c-4 -4 -7 -14 -7 -23 0 -11 3 -12 11 -4 6 6 10 16 7 23
-2 6 -7 8 -11 4z"/>
<path d="M4870 4841 c0 -5 5 -13 10 -16 6 -3 10 -2 10 4 0 5 -4 13 -10 16 -5
3 -10 2 -10 -4z"/>
<path d="M5410 4830 c0 -5 4 -10 9 -10 6 0 13 5 16 10 3 6 -1 10 -9 10 -9 0
-16 -4 -16 -10z"/>
<path d="M4713 4800 c-3 -11 -14 -20 -25 -20 -15 0 -19 -6 -17 -28 2 -15 -1
-33 -5 -41 -6 -9 -3 -17 8 -23 9 -5 16 -14 16 -21 0 -8 -3 -9 -8 -1 -5 7 -15
6 -32 -3 -14 -7 -19 -13 -11 -13 8 0 11 -3 8 -7 -4 -3 -2 -12 4 -20 9 -10 7
-13 -9 -13 -12 0 -24 5 -27 10 -11 18 -23 11 -34 -20 -6 -17 -6 -30 -1 -30 5
0 7 -8 4 -17 -3 -10 1 -7 9 7 11 18 12 29 5 37 -13 17 0 16 31 -1 15 -8 20
-16 12 -20 -20 -13 -12 -28 8 -16 24 12 44 13 37 1 -4 -5 2 -8 11 -6 10 1 17
10 17 19 -2 19 9 20 36 4 16 -11 23 -10 37 6 10 10 12 15 5 11 -8 -4 -23 2
-38 16 -28 27 -30 39 -6 40 10 0 12 3 5 6 -7 2 -13 16 -13 29 0 13 -5 24 -11
24 -5 0 -7 5 -4 10 4 6 15 8 26 5 14 -5 17 -3 13 9 -3 9 -11 16 -18 16 -10 0
-15 13 -18 58 -2 18 -9 15 -15 -8z"/>
<path d="M4570 4720 c-13 -9 -13 -10 0 -10 13 0 13 -1 0 -10 -8 -5 -11 -10 -7
-10 4 0 3 -9 -3 -19 -6 -12 -6 -22 -1 -26 5 -3 13 5 17 17 4 13 10 25 14 28 4
3 5 13 1 22 -4 13 -10 15 -21 8z"/>
<path d="M4385 4670 c-19 -8 -19 -9 3 -9 12 -1 22 4 22 9 0 6 -1 10 -2 9 -2 0
-12 -4 -23 -9z"/>
<path d="M4544 4584 c1 -8 4 -15 7 -16 2 -2 3 -1 2 1 -2 2 2 9 7 16 7 8 5 12
-4 12 -8 0 -13 -6 -12 -13z"/>
<path d="M5196 4585 c4 -8 8 -15 10 -15 2 0 4 7 4 15 0 8 -4 15 -10 15 -5 0
-7 -7 -4 -15z"/>
<path d="M5171 4556 c-16 -19 -11 -29 8 -17 7 5 12 14 9 21 -3 9 -8 7 -17 -4z"/>
<path d="M3945 4440 c3 -5 11 -10 16 -10 6 0 7 5 4 10 -3 6 -11 10 -16 10 -6
0 -7 -4 -4 -10z"/>
<path d="M1513 4123 c-18 -6 -16 -28 4 -48 15 -16 17 -16 26 0 6 11 6 20 0 24
-6 3 -12 11 -14 17 -2 6 -10 9 -16 7z"/>
<path d="M1358 3783 c7 -3 16 -2 19 1 4 3 -2 6 -13 5 -11 0 -14 -3 -6 -6z"/>
</g>
</svg>
